<svg xmlns="http://www.w3.org/2000/svg" xmlns:xlink="http://www.w3.org/1999/xlink" width="125.594" height="101.191" viewBox="0 0 125.594 101.191">
  <defs>
    <clipPath id="clip-path">
      <rect id="Rectangle_88" data-name="Rectangle 88" width="125.594" height="101.191"/>
    </clipPath>
  </defs>
  <g id="Group_36" data-name="Group 36" clip-path="url(#clip-path)">
    <g id="Group_35" data-name="Group 35">
      <g id="Group_34" data-name="Group 34" clip-path="url(#clip-path)">
        <g id="Group_33" data-name="Group 33" style="mix-blend-mode: multiply;isolation: isolate">
          <g id="Group_32" data-name="Group 32">
            <g id="Group_31" data-name="Group 31" clip-path="url(#clip-path)">
              <path id="Path_146" data-name="Path 146" d="M191.48,52.261c1.85-.57,3.288.792,4.939,1.15a1.829,1.829,0,0,1,1.291,2.205c.49.815,1.747-.393,2.093.8-.323.016-.633.04-1.057.073.042.381.073.664.107.979l.884-.074c.027-.344.051-.654.066-.978.5.209,1.3-.472,1.548.531h-.969l.573,1.413c.753.627,1.892.335,2.54,1.408.468.774,1.546,1.179,2.37,1.761l.418-.419.865,1.633-.575.708,2.514,1.534.15,1.379,1.37-.4a1.25,1.25,0,0,1,.613,1.385l-.431.171.431.349a4.978,4.978,0,0,0,.543.493,1.041,1.041,0,0,0-.078.074l.362.425.164-.164a2.9,2.9,0,0,0-.448-.335,4.978,4.978,0,0,1-.543-.493v-.52c.946-.778,2.008-.466,3.083-.152l-1.968.229c.327.679.645,1.341.991,2.026a1.013,1.013,0,0,0-.074-.078l-.425.363.164.164a2.907,2.907,0,0,0,.335-.448c1.02.231.989,1.134,1.122,1.952l.824.179v1.429l-.837-.407-.124.846,1.456.242-.343,2.419,1.512-.565c0,.869,0,1.536.076,2.457a12.4,12.4,0,0,1-.914-1.329l-.741.192c.063.944.455,1.42,1.655,1.137a1.79,1.79,0,0,1,.878-.809,2.144,2.144,0,0,1-1.4,2.327c-.524,1.584.888,1.719,1.741,2.287l1.061-.615.349,1.2h-2.067c-.286,1.034.246,1.361.922,1.594l1.088,1.484-.428.889.42.81-2.089,1.749,1.529.269a3.193,3.193,0,0,0,.028.52h-.823L217.4,92.08l.871.7.657-1.3-.51-.688c.235-.394.436-.731.623-1.093h.883c-.137.5-.275.962-.389,1.43-.124.51-.225,1.026-.351,1.608l.645.124.739,1.519a6.965,6.965,0,0,1-2.184-.3c-.276.1-.173.294-.1.283a4.287,4.287,0,0,0,.728-.225c-.313-.089-.626-.178-.629-.058.629.56.629.819.629,1.191l-1.725.346.9,1.859,1.241.058c.025.641.551,1.306-.407,1.538-.015-.323-.04-.634-.073-1.059l-.978.107.074.885c.343.027.654.051.977.066-.131.97-.984.27-1.391.591l-.555,1.866.547.722-2.655,1.732.414.8h-1.045a4.977,4.977,0,0,0-.543-.493,1.051,1.051,0,0,0,.078-.074l-.362-.425-.164.164a2.916,2.916,0,0,0,.448.335,4.977,4.977,0,0,1,.543.493c-.776.826-1.83,1.505-1.5,2.956l1.066.378-2.862,1.436-.663-1.168c-1.053.064-.637,1.226-1.232,1.6l-.519.52c-.318.058-.757.005-.93.2-.488.535-.759,1.32-1.319,1.72-.512.365-1.206.46-1.387,1.2l-.519.52h-1.281c-1.015,1.237-2.87,1.832-3.613,3.584l-1.018-.575-.282.239.446.751-.806.2-.405-1.082-.783,1.356.922.923c-.079.107-.138.281-.243.315-.928.3-1.5-.551-2.124-1.059-.12.4-.926,3.155-.621,3.324l-1.25-.691a4.665,4.665,0,0,1,.141,2c-.409.049-.721-.333-1-.641s-.743-.588-1.066-.334a.76.76,0,0,0-.234.44,4.364,4.364,0,0,0,.013,1.571,5.418,5.418,0,0,1,.069,1.572,1.694,1.694,0,0,1-.829,1.275c-2.078,1.042-1.412-3.674-1.819-4.677-.324-.8-.389-.8-1.134-.636-.557.123-.682.6-1.364.431-.163-.041-1.082-.651-1-.822l.756-1.653c-.58-.038-1.054-.211-1.368-.057a11.852,11.852,0,0,0-1.721,1.271c.37-1.688.37-1.688-.73-3.623l-1.183,1.521-1.931-.242-.519-.52v-1.04a8.908,8.908,0,0,0-1.2.056,6.679,6.679,0,0,1,.939-1.143l-1.366.153a2.171,2.171,0,0,0,.427.99,1.878,1.878,0,0,1,.165,1.053l-.878-.564-.325,1.016h-.875l.773-2.2-1.292.643v-2.754l-1.817.733c-.647-.773.321-2.384-1.416-2.687l-.611.464-3.377-1.881c-.066-.1-.329-.5-.584-.911s-.5-.817-.765-1.244l-.615.548-.261-1.532-1-.189.605,1.11-.581,1.038.557,1.064-.883.517c-.226-.945-.478-1.881-.648-2.831-.027-.151.314-.368.485-.556-1.333-1.009-.786.883-1.434.93.594,1.307-.759,1.956-.813,3.138a4.331,4.331,0,0,1-1.866-3.255h1.989v-1.065h-.987v-1.04H159.27c-.044-.778-.645-.442-1.039-.52a3.8,3.8,0,0,0-.027-.544,1.051,1.051,0,0,0,.074.078l.425-.363-.164-.164a2.91,2.91,0,0,0-.335.448,2.031,2.031,0,0,1-.4.195l.431.349c.078.394-.258,1,.519,1.04l-.519,1.56c-.92-.622-.512-1.939-1.442-2.674l-.681.34-2.08-2.082-.993,1.089c-.063.847,1.607,1.847-.037,2.572l.557,1.794-1.44-1.059-1.587.661v-1.653l-2.021.206-2.055-2.83c-1.919.754-1.984.748-3.252-.284l.542-.611a3.936,3.936,0,0,0-.3-.64,4.828,4.828,0,0,0-.521-.556l-.651.607-1.771-.865c.2-.778.392-1.558.62-2.377.515-.64.515-.64.032-1.5,0,.583,0,1.063-.032,1.5a4.858,4.858,0,0,1-.5.04l-2.625-2.913-.767,1.269-1.244.192-.158,1.356h-.987l.769-2.587,1.552-1.213-.986-.351.3-2.719-1.055-1.056.48-.82h.966c-.14-.955-.14-.955-.966-1.56v-.9l1.031-.167,2.12-1.864c-.053-.747-1.069-1.376-.255-2.325l.95,1.224a5.362,5.362,0,0,1,2.909-3.006v-.768l1.994-1.993-.435-1.647h.52l.171.431.348-.431c.394-.078.995.258,1.039-.52,1.813.2,2.88-1.052,4.169-2.357l.789,1.335,1.226-1.444-1.288-.206c.574-.824.574-.824,1.708-.857l.34.948,1.839-4.026-1.616-.319.868-.839.565.491.677-.8-.388-.464,1.507-1.28c-.111-.012.131-.02.351.045.509.152,1.008.34,1.771.6V66.1a5.534,5.534,0,0,0,1.192,1.238,2.044,2.044,0,0,1-.247.016l.2,1.016.336-.043a1.846,1.846,0,0,0-.287-.99c-.267-1.962.949-3.48,1.522-5.267l.736.668.236-1.48,1.417.307c.254-1.3-1.852-1.527-.682-3.027l1.405.54c.879-.515,1-2.037,2.507-2.09l1.327.663.225-2.077,1.811-.837-.381-1.9c.43,0,.77-.1.878.018a16.935,16.935,0,0,1,1.13,1.51l1.25-.584,1,.721-.573-1.976,1.3-1.138.362,1.75,1.2,1.166c.576-.4.793-1.927.4-2.954.793.14.793.14,1.086.865h1.9V50.7c1.19-.16,1.52.722,1.785,1.832l1.819-1.378,1.3.4a5.852,5.852,0,0,1,5.487.7l.393.52.646-.52m-39.255,54.051c.008-.019.155-.381.275-.751.006-.018-.22-.111-.057-.031l-1.772,1.774,1.237.18.25.939.351-.068-.284-2.043m59.9,1.595v-1.1l-.943.191.19.913Zm-40.906-52.4H170.18v.26h1.039Zm43.25,19.632h.26V74.1h-.26Zm-33.81-22.458.445-.029-.189-.869-.256.034ZM163.338,105.91l-.449.056.2.846.247-.04Zm-5.626-.949h-.52v.173h.52Zm58.359-3.294h.173v-.52h-.173ZM173.817,113.8h-.52v.173h.52Zm40.176-37.618h.173v-.52h-.173Zm-36.02-22.536h.52v-.173h-.52Zm36.54,49.579h.173v-.52h-.173Z" transform="translate(-114.591 -43.074)"/>
              <path id="Path_147" data-name="Path 147" d="M473.933,606.728l.672-.664h1.722l.87,1.616-1.777,1.571-1.487-.562Z" transform="translate(-402.785 -515.08)"/>
              <path id="Path_148" data-name="Path 148" d="M168.344,514.676V516.5l-1.246,1.247-1.224-.7a3.771,3.771,0,0,0-.231-.65,4.866,4.866,0,0,0-.567-.705L166.668,514l1.676.676" transform="translate(-140.295 -436.837)"/>
              <path id="Path_149" data-name="Path 149" d="M544.82,563.465h-1.175l-.711-.714V560.82c1.028.2,2.088-.349,3,.77l-1.109,1.875" transform="translate(-461.426 -476.628)"/>
              <path id="Path_150" data-name="Path 150" d="M312.518,652.872c-.17-.341-.345-.7-.53-1.052a.918.918,0,0,0-.181-.186c.583-.6.5-1.782,1.776-1.936l.852,2.008a1.558,1.558,0,0,1-1.916,1.166" transform="translate(-264.997 -552.163)"/>
              <path id="Path_151" data-name="Path 151" d="M162.123,490.089a5.337,5.337,0,0,0,.518-.977,7.716,7.716,0,0,0,.159-1.28h1.4a4.6,4.6,0,0,1-.046,1.8c-.329.733-1.065,1-2.031.457" transform="translate(-137.785 -414.597)"/>
              <path id="Path_152" data-name="Path 152" d="M514.177,576.194l1.241-.932a6.919,6.919,0,0,1,.339,2.746c-1.534.01-1.534.01-1.58-1.814" transform="translate(-436.987 -488.902)"/>
              <path id="Path_153" data-name="Path 153" d="M230.422,450.4c.252-.69.3-1.264.6-1.541a4.793,4.793,0,0,1,1.518-.6c.086,2.008.046,2.051-2.123,2.136" transform="translate(-195.83 -380.966)"/>
              <path id="Path_154" data-name="Path 154" d="M141.845,384.339l1.415-.681.147,1.021-2,1.882c-.659-.8.484-1.4.439-2.222" transform="translate(-120.004 -326.062)"/>
              <path id="Path_155" data-name="Path 155" d="M587.334,537.225h-1.9v-1.436l1.9-.1Z" transform="translate(-497.545 -455.271)"/>
              <path id="Path_156" data-name="Path 156" d="M762.818,379.367v2.07h-1.3c-.026-.034-.19-.152-.2-.286-.106-.961.257-1.591,1.508-1.784" transform="translate(-647.006 -322.415)"/>
              <path id="Path_157" data-name="Path 157" d="M825.363,376.284h-1.194l-.791-.9,1.985-.963Z" transform="translate(-699.77 -318.211)"/>
              <path id="Path_158" data-name="Path 158" d="M319.3,54.273h1.316l.133,1.47H319.3Z" transform="translate(-271.362 -46.125)"/>
              <path id="Path_159" data-name="Path 159" d="M180.512,248.739h-.69l-.144-1.281,2.242-1.083-1.407,2.364" transform="translate(-152.703 -209.388)"/>
              <path id="Path_160" data-name="Path 160" d="M447.855,592.743l-1.719-.121-.684-1.083c1.3-.455,1.924-.013,2.4,1.2" transform="translate(-378.579 -502.587)"/>
              <path id="Path_161" data-name="Path 161" d="M595.633,106.54h2.322l.64.641-.877,1.247a4.531,4.531,0,0,0-.6-1.12,8.467,8.467,0,0,0-1.482-.769" transform="translate(-506.215 -90.546)"/>
              <path id="Path_162" data-name="Path 162" d="M442.82,40.126l1.174-.94.878,1.53c-.879.692-1.455.064-2.052-.59" transform="translate(-376.342 -33.303)"/>
              <path id="Path_163" data-name="Path 163" d="M210.063,498.924l-1.171-1.476,2.15-.306-.979,1.782" transform="translate(-177.532 -422.509)"/>
              <path id="Path_164" data-name="Path 164" d="M221.48,439.3v-1.038l.815.444.62-.526c.028.623.051,1.125.084,1.869l-1.52-.749" transform="translate(-188.231 -372.396)"/>
              <path id="Path_165" data-name="Path 165" d="M128.043,316.168v-.913l1.245-.171.833-1v1.56a2.778,2.778,0,0,0-2.078.52" transform="translate(-108.821 -266.936)"/>
              <path id="Path_166" data-name="Path 166" d="M599.206,469.977h1.476l.095,1.024c-.76-.116-1.538.45-2.09-.5l.52-.52" transform="translate(-508.809 -399.422)"/>
              <path id="Path_167" data-name="Path 167" d="M292.422,121.808v1.166h-2.057l-.082-.3,2.139-.864" transform="translate(-246.705 -103.522)"/>
              <path id="Path_168" data-name="Path 168" d="M661.294,465.049V463.6h1.342l-1.342,1.451" transform="translate(-562.018 -394.001)"/>
              <path id="Path_169" data-name="Path 169" d="M620.252,460.95v1.638c-.269.269-1.228-.514-1.643-1.66l.926.84.717-.818" transform="translate(-525.741 -391.732)"/>
              <path id="Path_170" data-name="Path 170" d="M561.1,505.217h1.925v1.041l-1.968-.778.043-.263" transform="translate(-476.826 -429.372)"/>
              <path id="Path_171" data-name="Path 171" d="M717.8,461.8h-1.438l-.111-1.2c.281-.281.281-.281,1.548,1.2" transform="translate(-608.726 -391.325)"/>
              <path id="Path_172" data-name="Path 172" d="M336.749,448.634c.029.569.052,1.037.086,1.721-.436-.285-.659-.539-.916-.581-1.553-.254-.2-.644-.019-.885.116-.15.436-.142.848-.255" transform="translate(-284.863 -381.284)"/>
              <path id="Path_173" data-name="Path 173" d="M626.891,445.728c1.123.808.408,1.419-.374,2.188l-.146-1.668.52-.52" transform="translate(-532.338 -378.814)"/>
              <path id="Path_174" data-name="Path 174" d="M381.866,484.733v.8l-1.434.125-.188-.929Z" transform="translate(-323.16 -411.963)"/>
              <path id="Path_175" data-name="Path 175" d="M186.873,228.805l.758-1.6.8,1.6-.779.444-.779-.444" transform="translate(-158.819 -193.094)"/>
              <path id="Path_176" data-name="Path 176" d="M246.745,187.537l.784,2.5-1.465-.737.681-1.764" transform="translate(-209.124 -159.383)"/>
              <path id="Path_177" data-name="Path 177" d="M505.235,52.271a1.319,1.319,0,0,1,1.413-1.577l-.374,1.577Z" transform="translate(-429.385 -43.084)"/>
              <path id="Path_178" data-name="Path 178" d="M691.136,380.012c-1.022.185-.465,1.747-1.771,1.247L690,379.79l1.136.222" transform="translate(-585.875 -322.775)"/>
              <path id="Path_179" data-name="Path 179" d="M496.218,45.229v.756l-1.43.1-.158-.781,1.588-.076" transform="translate(-420.375 -38.439)"/>
              <path id="Path_180" data-name="Path 180" d="M416.675,530.672v1.163l-1.479.123-.107-.348,1.586-.939" transform="translate(-352.775 -451.006)"/>
              <path id="Path_181" data-name="Path 181" d="M178.274,442.216l-1.2,1.634v-1.865l1.2.231" transform="translate(-150.49 -375.633)"/>
              <path id="Path_182" data-name="Path 182" d="M82.909,288.185l.221,1.2H81.265l1.644-1.2" transform="translate(-69.065 -244.922)"/>
              <path id="Path_183" data-name="Path 183" d="M247.916,61.473h1.567c-.107.593-.316,1.04-1.161.99l-.405-.99" transform="translate(-210.698 -52.244)"/>
              <path id="Path_184" data-name="Path 184" d="M263.033,512.636v1.31h-1.779l1.779-1.31" transform="translate(-222.034 -435.677)"/>
              <path id="Path_185" data-name="Path 185" d="M340.17,499.906v1.568c-.592-.107-1.039-.316-.989-1.163l.989-.406" transform="translate(-288.259 -424.858)"/>
              <path id="Path_186" data-name="Path 186" d="M349.522,467.82v-1.163l1.479-.123.107.348-1.586.939" transform="translate(-297.051 -396.495)"/>
              <path id="Path_187" data-name="Path 187" d="M630.971,478.466v1.552l-.868-1.141.868-.412" transform="translate(-535.51 -406.637)"/>
              <path id="Path_188" data-name="Path 188" d="M216.162,446.586l-1.039,1.6c-.434-1.2.263-1.429,1.039-1.6" transform="translate(-182.715 -379.543)"/>
              <path id="Path_189" data-name="Path 189" d="M646.976,447.006l.083-1.071,1.734.836-1.818.236" transform="translate(-549.85 -378.99)"/>
              <path id="Path_190" data-name="Path 190" d="M701.4,399.93v1.593c-.975-.778-.975-.778,0-1.593" transform="translate(-595.483 -339.891)"/>
              <path id="Path_191" data-name="Path 191" d="M641.285,452.562v1.961l-.959-1.887.959-.074" transform="translate(-544.198 -384.622)"/>
              <path id="Path_192" data-name="Path 192" d="M433.253,595.221l-.662.663-.206-1.518.366-.2.5,1.06" transform="translate(-367.475 -504.964)"/>
              <path id="Path_193" data-name="Path 193" d="M603.2,489.22l-1.156-1.157.88-.765.276,1.922" transform="translate(-511.664 -414.143)"/>
              <path id="Path_194" data-name="Path 194" d="M623.088,128.631c-.02-.422-.031-.651-.047-.986l1.794.733-1.747.252" transform="translate(-529.508 -108.483)"/>
              <path id="Path_195" data-name="Path 195" d="M380.52,553.678h1.993l.168.232-1.117.328-1.044-.56" transform="translate(-323.395 -470.558)"/>
              <path id="Path_196" data-name="Path 196" d="M201.33,228.572l-.5-.882c.923-.473,1.2.272,1.542.882Z" transform="translate(-170.678 -193.381)"/>
              <path id="Path_197" data-name="Path 197" d="M712.735,311.614c.482-.35.639-1.151,1.6-.587-.482.35-.639,1.151-1.6.587" transform="translate(-605.737 -264.168)"/>
              <path id="Path_198" data-name="Path 198" d="M152.584,262.125h.854v1.9l-.854-1.9" transform="translate(-129.678 -222.774)"/>
              <path id="Path_199" data-name="Path 199" d="M424.336,522.408l1.039-1.6c.434,1.2-.263,1.429-1.039,1.6" transform="translate(-360.633 -442.621)"/>
              <rect id="Rectangle_51" data-name="Rectangle 51" width="0.26" height="1.56" transform="translate(0.649 77.835)"/>
              <path id="Path_200" data-name="Path 200" d="M283.069,94.169l-1.1-.685c1.26-.1,1.26-.1,1.1.685" transform="translate(-239.642 -79.411)"/>
              <path id="Path_201" data-name="Path 201" d="M214.822,200.367v1.381l-.272.025-.193-1.38.465-.026" transform="translate(-182.177 -170.287)"/>
              <path id="Path_202" data-name="Path 202" d="M152.864,239.672v-1.381l.272-.021.188,1.392-.46.01" transform="translate(-129.916 -202.5)"/>
              <path id="Path_203" data-name="Path 203" d="M184.263,428.7h.826v1.533l-.826-1.533" transform="translate(-156.601 -364.343)"/>
              <path id="Path_204" data-name="Path 204" d="M553,56.062l-1.1-.685c1.26-.1,1.26-.1,1.1.685" transform="translate(-469.048 -47.024)"/>
              <path id="Path_205" data-name="Path 205" d="M690.4,266.314l1.223-.791c.023.348.042.627.066.992l-1.029.076-.26-.276" transform="translate(-586.757 -225.662)"/>
              <path id="Path_206" data-name="Path 206" d="M174.377,418.174l-1.223.791c-.023-.347-.042-.627-.066-.992l1.026-.075.263.276" transform="translate(-147.103 -355.162)"/>
              <rect id="Rectangle_52" data-name="Rectangle 52" width="0.26" height="1.56" transform="translate(20.911 41.951)"/>
              <path id="Path_207" data-name="Path 207" d="M284.771,440.8c-.022.307-.045.613-.075,1.03l-.991-.066.791-1.224.276.26" transform="translate(-241.114 -374.406)"/>
              <path id="Path_208" data-name="Path 208" d="M207.243,514.189l1.074-.385c.265.528-.128.69-1.074.385" transform="translate(-176.131 -436.67)"/>
              <path id="Path_209" data-name="Path 209" d="M695.467,301.318c.022-.307.045-.613.075-1.03l.991.066-.791,1.224-.276-.26" transform="translate(-591.061 -255.208)"/>
              <path id="Path_210" data-name="Path 210" d="M232.844,193.371v1.463c-.483-.863-.483-.863,0-1.463" transform="translate(-197.581 -164.341)"/>
              <path id="Path_211" data-name="Path 211" d="M239.379,166.924V165.54l.272-.018.188,1.392-.46.01" transform="translate(-203.443 -140.673)"/>
              <path id="Path_212" data-name="Path 212" d="M159.5,378.645l-1.009.192-.311-1.476,1.32,1.284" transform="translate(-134.434 -320.71)"/>
              <path id="Path_213" data-name="Path 213" d="M471.531,43.288l-1.045.262-.153-1.368,1.2,1.106" transform="translate(-399.725 -35.849)"/>
              <path id="Path_214" data-name="Path 214" d="M208.265,219.923l-.973-.071-.2-.287,1.025-.39.148.749" transform="translate(-176.003 -186.271)"/>
              <path id="Path_215" data-name="Path 215" d="M636.052,139.2l-1.1-.685c1.26-.1,1.26-.1,1.1.685" transform="translate(-539.634 -117.684)"/>
              <path id="Path_216" data-name="Path 216" d="M477.422,41.044c.026-.361.049-.667.071-.974l.287-.2.39,1.026-.748.148" transform="translate(-405.75 -33.885)"/>
              <path id="Path_217" data-name="Path 217" d="M793.253,469.561l1.28-.459c.13.544.13.544-1.28.459" transform="translate(-674.167 -398.679)"/>
              <path id="Path_218" data-name="Path 218" d="M708.164,365.187l.192,1.01-1.475.311,1.283-1.321" transform="translate(-600.762 -310.364)"/>
              <path id="Path_219" data-name="Path 219" d="M439.811,565.711l-1.009.192-.311-1.476,1.32,1.284" transform="translate(-372.663 -479.693)"/>
              <path id="Path_220" data-name="Path 220" d="M191.01,464.32l-1.078.387c-.312-.569.174-.658,1.078-.387" transform="translate(-161.339 -394.489)"/>
              <rect id="Rectangle_53" data-name="Rectangle 53" width="0.26" height="1.04" transform="translate(19.352 50.792)"/>
              <path id="Path_221" data-name="Path 221" d="M107.609,352.742v.863l-.247.04-.2-.846.449-.056" transform="translate(-91.073 -299.787)"/>
              <path id="Path_222" data-name="Path 222" d="M308.325,484.382v.863l-.247.04-.2-.846.449-.056" transform="translate(-261.657 -411.665)"/>
              <path id="Path_223" data-name="Path 223" d="M267.058,107.448v-.863l.256-.035.189.869-.445.029" transform="translate(-226.966 -90.554)"/>
              <path id="Path_224" data-name="Path 224" d="M301.4,113.712v.863l-.247.04-.2-.846.449-.056" transform="translate(-255.774 -96.641)"/>
              <path id="Path_225" data-name="Path 225" d="M346.581,473.442v1.04l-.52-.647.52-.393" transform="translate(-294.109 -402.367)"/>
              <path id="Path_226" data-name="Path 226" d="M606.2,516.282v-.863l.247-.04.2.846-.449.056" transform="translate(-515.194 -438.009)"/>
              <rect id="Rectangle_54" data-name="Rectangle 54" width="0.26" height="1.04" transform="translate(39.613 11.788)"/>
              <path id="Path_227" data-name="Path 227" d="M332.767,491.354h.861l.041.247-.845.2-.056-.449" transform="translate(-282.811 -417.59)"/>
              <path id="Path_228" data-name="Path 228" d="M357.7,65.362,356.443,65a4.276,4.276,0,0,1,.728-.225c.074-.011.177.185.531.583" transform="translate(-302.933 -55.054)"/>
              <path id="Path_229" data-name="Path 229" d="M427.653,46.808l1.259.358a4.292,4.292,0,0,1-.728.225c-.074.011-.177-.185-.531-.583" transform="translate(-363.452 -39.781)"/>
              <rect id="Rectangle_55" data-name="Rectangle 55" width="0.26" height="1.04" transform="translate(17.274 92.917)"/>
              <path id="Path_230" data-name="Path 230" d="M125.173,308.43v-.863l.247-.04.2.846-.449.056" transform="translate(-106.382 -261.36)"/>
              <path id="Path_231" data-name="Path 231" d="M318.728,477.54v.863l-.256.035-.189-.869.445-.029" transform="translate(-270.501 -405.85)"/>
              <path id="Path_232" data-name="Path 232" d="M124.912,408.17v.863l-.247.04-.2-.846.449-.056" transform="translate(-105.778 -346.894)"/>
              <path id="Path_233" data-name="Path 233" d="M626.279,508.374l1-.086.043.336-1.016.2q-.011-.225-.023-.449" transform="translate(-532.26 -431.982)"/>
              <path id="Path_234" data-name="Path 234" d="M201.926,525.755h-.863l-.034-.256.868-.189.029.445" transform="translate(-170.85 -446.449)"/>
              <path id="Path_235" data-name="Path 235" d="M391.4,668.072v.863l-.256.035-.189-.869.445-.029" transform="translate(-332.264 -567.779)"/>
              <path id="Path_236" data-name="Path 236" d="M692.757,439.391h.862l.035.256-.868.189-.029-.445" transform="translate(-588.758 -373.428)"/>
              <path id="Path_237" data-name="Path 237" d="M152.858,277.194v-.863l.256-.035.189.869Z" transform="translate(-129.91 -234.817)"/>
              <path id="Path_238" data-name="Path 238" d="M290.692,438.8h.95l.037.344-.987.176Z" transform="translate(-247.052 -372.925)"/>
              <path id="Path_239" data-name="Path 239" d="M779.186,248.859h.862l.04.247-.845.2-.056-.449" transform="translate(-662.212 -211.499)"/>
              <path id="Path_240" data-name="Path 240" d="M710.562,248.414l-1,.086-.043-.336,1.015-.2q.011.225.023.449" transform="translate(-603.007 -210.74)"/>
              <path id="Path_241" data-name="Path 241" d="M319.635,508.779l-1.259-.358a4.282,4.282,0,0,1,.728-.225c.074-.01.177.185.531.583" transform="translate(-270.58 -431.903)"/>
              <path id="Path_242" data-name="Path 242" d="M156.573,428.146l-.362.425-.164-.164.425-.362.1.1" transform="translate(-132.621 -363.785)"/>
              <path id="Path_243" data-name="Path 243" d="M294.672,424.943l-.52.52.52-.52" transform="translate(-249.993 -361.149)"/>
              <path id="Path_244" data-name="Path 244" d="M305.379,431.61l-.362.425-.164-.164.425-.362.1.1" transform="translate(-259.087 -366.729)"/>
              <path id="Path_245" data-name="Path 245" d="M158.826,425.687l.362-.425.164.164-.424.362-.1-.1" transform="translate(-134.983 -361.42)"/>
              <path id="Path_246" data-name="Path 246" d="M179.59,415.295l.362-.425.164.164-.425.362-.1-.1" transform="translate(-152.629 -352.588)"/>
              <rect id="Rectangle_56" data-name="Rectangle 56" width="0.173" height="0.52" transform="translate(107.714 61.194)"/>
              <path id="Path_247" data-name="Path 247" d="M259.284,445.365l.425.362-.164.164-.362-.425.1-.1" transform="translate(-220.274 -378.505)"/>
              <path id="Path_248" data-name="Path 248" d="M696.328,401.539l-.425-.363.164-.164.362.425-.1.1" transform="translate(-591.432 -340.812)"/>
              <rect id="Rectangle_57" data-name="Rectangle 57" width="0.52" height="0.173" transform="translate(0 58.767)"/>
              <rect id="Rectangle_58" data-name="Rectangle 58" width="0.173" height="0.52" transform="translate(99.401 67.954)"/>
              <rect id="Rectangle_59" data-name="Rectangle 59" width="0.52" height="0.173" transform="translate(45.198 69.168)"/>
              <rect id="Rectangle_60" data-name="Rectangle 60" width="0.173" height="0.52" transform="translate(18.356 53.393)"/>
              <rect id="Rectangle_61" data-name="Rectangle 61" width="0.173" height="0.52" transform="translate(20.434 51.833)"/>
              <path id="Path_249" data-name="Path 249" d="M249.909,463.9l-.425-.363.164-.164.362.425-.1.1" transform="translate(-212.031 -393.807)"/>
              <path id="Path_250" data-name="Path 250" d="M255.723,463.793l.362-.425.164.164-.425.363-.1-.1" transform="translate(-217.333 -393.806)"/>
              <path id="Path_251" data-name="Path 251" d="M710.272,327.684l-.362.425-.164-.164.424-.362.1.1" transform="translate(-603.197 -278.404)"/>
              <rect id="Rectangle_62" data-name="Rectangle 62" width="0.173" height="0.52" transform="translate(97.843 69.514)"/>
              <path id="Path_252" data-name="Path 252" d="M125.428,327.684l-.362.425-.164-.164.424-.363.1.1" transform="translate(-106.151 -278.404)"/>
              <path id="Path_253" data-name="Path 253" d="M252.625,466.513h.52l-.348.431-.171-.431" transform="translate(-214.7 -396.479)"/>
              <path id="Path_254" data-name="Path 254" d="M712.887,325v-.52l.431.349-.431.171" transform="translate(-605.866 -275.769)"/>
              <path id="Path_255" data-name="Path 255" d="M709.946,321.537l-.52-.52.52.52" transform="translate(-602.925 -272.825)"/>
              <rect id="Rectangle_63" data-name="Rectangle 63" width="0.173" height="0.52" transform="translate(44.852 70.555)"/>
              <rect id="Rectangle_64" data-name="Rectangle 64" width="0.173" height="0.52" transform="translate(123.819 47.672)"/>
              <rect id="Rectangle_65" data-name="Rectangle 65" width="0.173" height="0.52" transform="translate(19.915 71.075)"/>
              <path id="Path_256" data-name="Path 256" d="M706.709,318.4l-.424-.363.164-.164.362.425-.1.1" transform="translate(-600.255 -270.152)"/>
              <rect id="Rectangle_66" data-name="Rectangle 66" width="0.52" height="0.173" transform="translate(16.105 44.725)"/>
              <path id="Path_257" data-name="Path 257" d="M715.985,245.548l.362-.425.164.164-.425.363-.1-.1" transform="translate(-608.499 -208.324)"/>
              <path id="Path_258" data-name="Path 258" d="M349.262,480.007l.425.363-.164.164-.362-.425.1-.1" transform="translate(-296.743 -407.947)"/>
              <rect id="Rectangle_67" data-name="Rectangle 67" width="0.173" height="0.52" transform="translate(31.344 72.635)"/>
              <path id="Path_259" data-name="Path 259" d="M184.259,237.615l-.362.425-.164-.164.424-.362.1.1" transform="translate(-156.15 -201.857)"/>
              <path id="Path_260" data-name="Path 260" d="M200.716,234.931l.52-.52v.52Z" transform="translate(-170.584 -199.22)"/>
              <path id="Path_261" data-name="Path 261" d="M214.3,223.656l.425.363-.164.164-.362-.425.1-.1" transform="translate(-182.04 -190.08)"/>
              <path id="Path_262" data-name="Path 262" d="M204.7,210.162l-.348.431-.171-.431Z" transform="translate(-173.524 -178.612)"/>
              <path id="Path_263" data-name="Path 263" d="M398.816,493.966l-.362.425-.164-.164.425-.362.1.1" transform="translate(-338.497 -419.724)"/>
              <path id="Path_264" data-name="Path 264" d="M224.678,206.335l.425.363-.164.164-.362-.425.1-.1" transform="translate(-190.863 -175.359)"/>
              <path id="Path_265" data-name="Path 265" d="M207.275,207.442l.362-.425.164.164-.425.363-.1-.1" transform="translate(-176.158 -175.939)"/>
              <path id="Path_266" data-name="Path 266" d="M423.217,501.675l-.431-.349.431-.171Z" transform="translate(-359.316 -425.92)"/>
              <rect id="Rectangle_68" data-name="Rectangle 68" width="0.52" height="0.173" transform="translate(88.838 75.408)"/>
              <path id="Path_267" data-name="Path 267" d="M315.66,505.466l-.425-.363.164-.164.362.425-.1.1" transform="translate(-267.911 -429.136)"/>
              <path id="Path_268" data-name="Path 268" d="M402.278,504.358l-.362.425-.164-.164.424-.363.1.1" transform="translate(-341.44 -428.555)"/>
              <path id="Path_269" data-name="Path 269" d="M426.175,504.619l-.348.431-.171-.431Z" transform="translate(-361.754 -428.864)"/>
              <path id="Path_270" data-name="Path 270" d="M201.46,207.544l-.425-.363.164-.164.362.425-.1.1" transform="translate(-170.855 -175.94)"/>
              <path id="Path_271" data-name="Path 271" d="M222.224,204.079l-.425-.363.164-.164.362.425-.1.1" transform="translate(-188.502 -172.995)"/>
              <rect id="Rectangle_69" data-name="Rectangle 69" width="0.52" height="0.173" transform="translate(30.132 30.163)"/>
              <rect id="Rectangle_70" data-name="Rectangle 70" width="0.173" height="0.52" transform="translate(103.558 29.47)"/>
              <path id="Path_272" data-name="Path 272" d="M623.757,511.286l-.362.425-.164-.164.424-.362Z" transform="translate(-529.669 -434.444)"/>
              <rect id="Rectangle_71" data-name="Rectangle 71" width="0.52" height="0.173" transform="translate(22.339 77.489)"/>
              <rect id="Rectangle_72" data-name="Rectangle 72" width="0.52" height="0.173" transform="translate(109.619 28.603)"/>
              <path id="Path_273" data-name="Path 273" d="M234.96,190.121l.362-.425.164.164-.424.362-.1-.1" transform="translate(-199.687 -161.218)"/>
              <path id="Path_274" data-name="Path 274" d="M246.448,186.758l-.425-.363.164-.164.362.425Z" transform="translate(-209.089 -158.274)"/>
              <path id="Path_275" data-name="Path 275" d="M542.955,533.078l.362-.425.164.164-.425.362Z" transform="translate(-461.445 -452.689)"/>
              <rect id="Rectangle_73" data-name="Rectangle 73" width="0.173" height="0.52" transform="translate(23.032 80.436)"/>
              <rect id="Rectangle_74" data-name="Rectangle 74" width="0.173" height="0.52" transform="translate(38.098 22.709)"/>
              <rect id="Rectangle_75" data-name="Rectangle 75" width="0.173" height="0.52" transform="translate(60.437 80.956)"/>
              <rect id="Rectangle_76" data-name="Rectangle 76" width="0.52" height="0.173" transform="translate(34.288 21.843)"/>
              <rect id="Rectangle_77" data-name="Rectangle 77" width="0.173" height="0.52" transform="translate(44.332 14.908)"/>
              <rect id="Rectangle_78" data-name="Rectangle 78" width="0.173" height="0.52" transform="translate(85.894 84.076)"/>
              <path id="Path_276" data-name="Path 276" d="M577.661,92.016l.425.363-.164.164-.362-.425.1-.1" transform="translate(-490.855 -78.202)"/>
              <rect id="Rectangle_79" data-name="Rectangle 79" width="0.52" height="0.173" transform="translate(103.384 86.85)"/>
              <rect id="Rectangle_80" data-name="Rectangle 80" width="0.52" height="0.173" transform="translate(36.886 87.37)"/>
              <rect id="Rectangle_81" data-name="Rectangle 81" width="0.173" height="0.52" transform="translate(26.669 87.716)"/>
              <rect id="Rectangle_82" data-name="Rectangle 82" width="0.173" height="0.52" transform="translate(101.479 10.228)"/>
              <rect id="Rectangle_83" data-name="Rectangle 83" width="0.52" height="0.173" transform="translate(15.066 89.97)"/>
              <path id="Path_277" data-name="Path 277" d="M487.685,33.124l.425.363-.164.164-.362-.425.1-.1" transform="translate(-414.386 -28.151)"/>
              <rect id="Rectangle_84" data-name="Rectangle 84" width="0.52" height="0.173" transform="translate(96.631 9.361)"/>
              <path id="Path_278" data-name="Path 278" d="M485.231,30.869l-.425-.363.164-.164.362.425-.1.1" transform="translate(-412.025 -25.788)"/>
              <rect id="Rectangle_85" data-name="Rectangle 85" width="0.52" height="0.173" transform="translate(70.655)"/>
              <path id="Path_279" data-name="Path 279" d="M353.727,62.047l-.425-.363.164-.164.362.425-.1.1" transform="translate(-300.263 -52.285)"/>
            </g>
          </g>
        </g>
      </g>
    </g>
  </g>
</svg>
