<svg id="Group_1486" data-name="Group 1486" xmlns="http://www.w3.org/2000/svg" xmlns:xlink="http://www.w3.org/1999/xlink" width="34.712" height="35.25" viewBox="0 0 34.712 35.25">
  <defs>
    <clipPath id="clip-path">
      <rect id="Rectangle_399" data-name="Rectangle 399" width="34.712" height="35.25" fill="none"/>
    </clipPath>
  </defs>
  <g id="Group_756" data-name="Group 756" clip-path="url(#clip-path)">
    <path id="Path_608" data-name="Path 608" d="M34.575,17.518a15.244,15.244,0,0,0-5.2-8.7A20.083,20.083,0,0,0,20.258,4.2,17.209,17.209,0,0,0,8.209,6.136a12.757,12.757,0,0,1,2.259-2.192,10.409,10.409,0,0,1,3.3-1.647A1.165,1.165,0,0,0,13.145.053C7.312,1.758,4.032,7.331,2.09,12.729a13.816,13.816,0,0,0-.921,2.808A24.294,24.294,0,0,0,.016,23.362a11.654,11.654,0,0,0,4.232,8.781,14.673,14.673,0,0,0,8.922,3.105A23.98,23.98,0,0,0,24,32.432a23.81,23.81,0,0,0,7.826-5.709,11.313,11.313,0,0,0,2.752-9.2M3.33,16.49c.25-.914.527-1.823.841-2.719A13.184,13.184,0,0,1,11.247,7.2a1.094,1.094,0,0,0,.815.356c6.1.135,13.076.358,17.372,5.357a8.352,8.352,0,0,1,1.974,7.358,11.063,11.063,0,0,1-5.295,6.781,20.06,20.06,0,0,1-8.4,2.6,16.667,16.667,0,0,1-8.155-1.1A10.475,10.475,0,0,1,4.052,23.1,11.782,11.782,0,0,1,3.33,16.49m5.5,15.619a9.8,9.8,0,0,1-5.715-5.153,9.4,9.4,0,0,1-.5-1.56,11.991,11.991,0,0,0,2.1,2.694c4.016,3.844,9.963,4.563,15.315,3.581a16.221,16.221,0,0,1-11.2.439" transform="translate(0 0)"/>
    <path id="Path_609" data-name="Path 609" d="M36.076,9.316a1.187,1.187,0,0,0-1.592.418L31.7,13.784a1.085,1.085,0,0,0-1.133-.114,1.23,1.23,0,0,0-2.1-.152L24.951,18.77,19.275,12.4c-.888-.967-2.231.157-1.9,1.2a1.177,1.177,0,0,0-1.314,1.88l.428.5a1.119,1.119,0,0,0,.2,1.261l5.347,5.887-5.228,7.818c-.738,1.1.924,2.363,1.827,1.41.3-.314.586-.636.878-.955A1.209,1.209,0,0,0,21.287,32a.918.918,0,0,0,.936-.353c.061-.078.119-.159.18-.237l0,0,.037-.054q1.636-2.118,3.125-4.335l3.669,4.039a1.02,1.02,0,0,0,.385.268l.733.856c.893,1.043,2.414-.286,1.828-1.41-.179-.342-.37-.678-.553-1.018l1.4,1.568c1,1.12,2.64-.53,1.645-1.646L28.417,22.66l8.076-11.751a1.175,1.175,0,0,0-.418-1.592" transform="translate(-8.361 -4.862)"/>
  </g>
</svg>
