<svg xmlns="http://www.w3.org/2000/svg" width="77.225" height="80.116" viewBox="0 0 77.225 80.116">
  <path id="Path_445" data-name="Path 445" d="M80.553,48.488a9.955,9.955,0,0,0-1.581-3.02,11.807,11.807,0,0,0-1.436-1.588c.152,0,.3,0,.455-.01a1.138,1.138,0,0,0,.957-1.819,1.979,1.979,0,0,0-.538-.6,3.165,3.165,0,0,0-.8-.476,12.342,12.342,0,0,0-1.685-.45c-.384-.08-.775-.18-1.2-.277-.4-.116-.83-.223-1.222-.376l-.3-.106-.313-.125-.6-.236c-.384-.146-.726-.285-1.016-.413a6.427,6.427,0,0,1-.674-.346l-.034-.022c-.016-.091-.027-.182-.044-.274s-.04-.18-.057-.271l.023-.033a6.566,6.566,0,0,1,.505-.564c.224-.224.494-.476.8-.75l.48-.437.248-.228.243-.208c.311-.283.675-.537,1.007-.788.358-.241.688-.474,1.018-.688A12.266,12.266,0,0,0,76.2,33.356a3.676,3.676,0,0,0,.314-.341,3.53,3.53,0,0,0,.264-.391,1.964,1.964,0,0,0,.286-.757,1.138,1.138,0,0,0-1.545-1.355q-.217.069-.428.154a11.864,11.864,0,0,0,.773-2,9.966,9.966,0,0,0,.395-3.386,5.646,5.646,0,0,0-.444-1.738,6.215,6.215,0,0,0-.4-.713,5.456,5.456,0,0,0-.477-.554,3.429,3.429,0,0,0-.533-.4.975.975,0,0,0-.119-.064l-.109-.028a1.81,1.81,0,0,0-.2-.036.676.676,0,0,0-.838.761,1.685,1.685,0,0,0,.016.207c.006.036.012.072.018.111a.775.775,0,0,1,0,.1,3.1,3.1,0,0,0,0,.387,3.779,3.779,0,0,0,.04.476c.01.171.024.35.051.53.025.38.078.783.113,1.236.026.217.068.562.094,1.005l-.01-.046a8.233,8.233,0,0,0-1.208-2.861,4.767,4.767,0,0,0-1.1-1.142l-.161-.118-.176-.1a2.78,2.78,0,0,0-.357-.187c-.124-.053-.248-.1-.37-.149-.15-.042-.3-.077-.451-.107l-.111-.021-.055-.009-.032,0-.113-.013-.11-.012-.054-.006-.027,0h-.141q-.18,0-.35.016c-.114.015-.225.032-.332.051a3.219,3.219,0,0,0-1.015.407,3.312,3.312,0,0,0-1.093,1.159,3.479,3.479,0,0,0-.421,1.32,3.037,3.037,0,0,0,.14,1.3,2.217,2.217,0,0,0,.766,1.082,1.672,1.672,0,0,0,1.055.337,1.372,1.372,0,0,0,.666-.213.794.794,0,0,0,.19-.161.878.878,0,0,0,.084-.161.526.526,0,0,0,.029-.307.519.519,0,0,0-.157-.265.961.961,0,0,0-.144-.11,1.219,1.219,0,0,1-.124-.12.988.988,0,0,1-.2-.251.164.164,0,0,1,.053-.2.344.344,0,0,0,.136-.142c.038-.072.077-.177.137-.291a1.852,1.852,0,0,1,.214-.324,1.147,1.147,0,0,1,.222-.2c.034-.016.065-.042.116-.066L69,24.625l.058-.014h0l-.1,0H69.3l0,0,0,0,.023-.01a.848.848,0,0,0,.108.023.547.547,0,0,1,.121.037l.067.02.068.036a2.265,2.265,0,0,1,.634.472A6.328,6.328,0,0,1,71.547,27.1l.032.072-.009-.036,0,.005,0,.011.007.021.015.042.059.168.118.339c.061.205.1.383.162.582.033.209.084.421.108.635s.055.43.049.647a8.318,8.318,0,0,1-.34,2.539l-.025.078c.029-.42.04-.832.028-1.215a6.111,6.111,0,0,0-.269-1.789,2.435,2.435,0,0,0-1.216-1.373,1.643,1.643,0,0,0-.4-.136.614.614,0,0,0-.32.029,1.083,1.083,0,0,0-.771.828,2.028,2.028,0,0,1-.057.294c-.029.089-.059.162-.079.241a2.183,2.183,0,0,0,.124,1.146c.079.206.322.635.584,1.249.132.3.269.65.4,1.017l.049.138.006.017,0,.008a.871.871,0,1,0,0-.108v.007l.008.038.016.077.065.308.033.154.014.108.034.226a7.348,7.348,0,0,1-.186,1.867A28.776,28.776,0,0,0,58.5,19.844a14.564,14.564,0,0,1,1.307.684,12.682,12.682,0,0,1,1.807,1.286c.247.2.435.4.6.553.145.163.277.275.35.346a1.4,1.4,0,0,0,.245.178,2.063,2.063,0,0,0,.244.137,1.315,1.315,0,0,0,.133.053.553.553,0,0,0,.111.028c.073.014.156.024.248.033a1.165,1.165,0,0,1,.3.081,1.365,1.365,0,0,0,.3.052,1.1,1.1,0,0,0,1.009-.513,1.408,1.408,0,0,0,.136-.276.635.635,0,0,0,.052-.342,2.352,2.352,0,0,0-.285-.893,2.55,2.55,0,0,0-.271-.41,4,4,0,0,0-.357-.358,4.145,4.145,0,0,0-.634-.4c-.17-.082-.366-.17-.574-.256a12.855,12.855,0,0,0,1.9-.162c.289-.034.562-.112.82-.168.128-.032.254-.057.372-.093l.337-.112c.214-.075.409-.136.572-.208s.3-.142.4-.2a4.531,4.531,0,0,0,1.065-.807,3.993,3.993,0,0,0,.666-.949,1.286,1.286,0,0,0-.112-1.342A1.282,1.282,0,0,0,67.9,15.67a3.627,3.627,0,0,0-.75.225,6.055,6.055,0,0,0,.58-1.623,5,5,0,0,0,.036-1.753,4.219,4.219,0,0,0-.958-2.052,3.587,3.587,0,0,0-1.473-1.025,2.712,2.712,0,0,0-.651-.148,1.747,1.747,0,0,0-.529.022.753.753,0,0,0-.521.4.753.753,0,0,0,.1.65c.062.122.113.244.184.362s.159.258.239.4a6.757,6.757,0,0,1,.454.874,4.8,4.8,0,0,1,.286,1.008,4.1,4.1,0,0,1,.073.88,3.84,3.84,0,0,1-.349,1.437,4.252,4.252,0,0,1-.475.793,4.328,4.328,0,0,1-.323.379c-.06.059-.119.122-.183.181l-.1.085-.05.044-.024.022-.013.012-.006,0,.032-.019,0,0-.262.19c-.085.059-.183.136-.253.176-.155.093-.29.2-.472.291s-.347.193-.531.273l-.273.128L61.408,18a14,14,0,0,1-4.351.883l-.054,0c-.725-.435-1.466-.843-2.227-1.214.041.009.083.021.124.03a4.751,4.751,0,0,0,1.4.145,1.917,1.917,0,0,0,1.324-.777,1.577,1.577,0,0,0,.172-.334.611.611,0,0,0,.063-.346,1.354,1.354,0,0,0-.745-.852.5.5,0,0,1-.177-.182,1.434,1.434,0,0,0-.168-.154,1.031,1.031,0,0,0-.6-.245,7.281,7.281,0,0,0,1.293-.631,5.152,5.152,0,0,0,.592-.444,5.659,5.659,0,0,0,.5-.508,4.976,4.976,0,0,0,.38-.55,4.086,4.086,0,0,0,.246-.552,2.636,2.636,0,0,0,.122-.553A.968.968,0,0,0,59.3,11.6l-.018-.1a1.632,1.632,0,0,0-.05-.177.763.763,0,0,0-1-.526,1.517,1.517,0,0,0-.175.059l-.09.04-.088.018a3.172,3.172,0,0,0-.324.083,8.528,8.528,0,0,0-1.2.593,3.571,3.571,0,0,0,.186-.719,3.986,3.986,0,0,0,.039-.54c0-.1-.008-.2-.013-.295l0-.071,0-.046-.009-.093-.009-.092,0-.045-.021-.114c-.018-.089-.036-.179-.059-.267a3.86,3.86,0,0,0-.172-.5,4.306,4.306,0,0,0-1.114-1.531,4.677,4.677,0,0,0-1.388-.854A4.186,4.186,0,0,0,52.4,6.14a3.49,3.49,0,0,0-1.118.145,3.374,3.374,0,0,0-.844.394,3.3,3.3,0,0,0-.672.591,3.2,3.2,0,0,0-.256.333,4.011,4.011,0,0,0-.228.389.519.519,0,0,0-.035.074l-.024.058-.046.114-.005.014,0,0-.027.056v0l0,.011-.016.045-.031.089-.056.177a3.022,3.022,0,0,0-.053,1.485,2.538,2.538,0,0,0,.593,1.149,2.349,2.349,0,0,0,.779.559,1.87,1.87,0,0,0,.658.148,1.32,1.32,0,0,0,.258-.018.9.9,0,0,0,.176-.076.452.452,0,0,0,.23-.539.95.95,0,0,0-.067-.18c-.018-.061-.037-.123-.059-.183-.044-.111-.1-.245-.157-.4a1.58,1.58,0,0,1-.083-.411.71.71,0,0,1,.065-.326,1.992,1.992,0,0,1,.178-.3l.034-.046.016-.023.008-.012,0,0-.025.051,0,0L51.6,9.5l.067-.1.033-.052.027-.036.051-.033.074-.063a.811.811,0,0,1,.282-.146,1.332,1.332,0,0,1,.737-.008,2.1,2.1,0,0,1,1.2.82,1.687,1.687,0,0,1,.093.163l.037.085,0,.011,0,0c-.02-.1,0-.025-.009-.046V10.1l.012.044.022.09.023.09.011.045,0,.022.018.078a1.573,1.573,0,0,1,.024.216,1.7,1.7,0,0,1-.251.949,5.135,5.135,0,0,1-2.093,1.749,10.464,10.464,0,0,1-2.774.957c-.491.1-.91.157-1.349.2s-.844.072-1.223.1c-.759.045-1.39.085-1.827.121l-.606.061c-.655-.046-1.315-.063-1.977-.064a13.1,13.1,0,0,0,1.913-.864,11.355,11.355,0,0,0,1.141-.722,6.829,6.829,0,0,0,.687-.582,3.829,3.829,0,0,0,.667-.948,3.114,3.114,0,0,0,.312-1,1.36,1.36,0,0,0,.015-.22c-.008-.063-.018-.124-.032-.183a1.493,1.493,0,0,0-.112-.325A.886.886,0,0,0,45.8,9.4a1.473,1.473,0,0,0-.329.1c-.056.024-.112.051-.168.082s-.111.039-.164.061a3.646,3.646,0,0,0-1.279.928c-.1.113-.269.292-.459.534-.209.227-.445.524-.745.821a14.165,14.165,0,0,1-1.633,1.463,7.123,7.123,0,0,0,.577-.53,7.536,7.536,0,0,0,.964-1.253,6.785,6.785,0,0,0,.848-1.947,3.059,3.059,0,0,0-.145-1.852,1.232,1.232,0,0,0-.956-.793,1.292,1.292,0,0,0-1.089.586,3.494,3.494,0,0,0-.653,1.453c-.06.283-.094.879-.251,1.569a6.568,6.568,0,0,1-.346,1.1,6.609,6.609,0,0,1-.624,1.118c-.039.054-.081.107-.121.16l.089-.167c.07-.139.151-.275.215-.425a9.661,9.661,0,0,0,.333-.917l.067-.217.034-.109.008-.027,0-.014,0-.006,0,0,.005-.041L40,11.018c.035-.157.077-.314.106-.473.066-.317.121-.638.16-.959a10,10,0,0,0,.068-1.9,6.575,6.575,0,0,0-.314-1.663L39.9,5.685c-.046-.107-.1-.207-.141-.3a2.669,2.669,0,0,0-.265-.452,3.542,3.542,0,0,0-.553-.627,3.455,3.455,0,0,0-.363-.281,1.633,1.633,0,0,0-.338-.2c-.084-.034-.167-.065-.25-.092l-.062-.02-.015,0-.008,0h0c.015.009-.136-.083-.073-.044h0l-.047-.014L37.59,3.6a2.913,2.913,0,0,0-.345-.061c-.1,0-.193,0-.282.009a1.331,1.331,0,0,0-.449.1,1.452,1.452,0,0,0-.332.172.867.867,0,0,0-.365.493.858.858,0,0,0,.088.6,1.821,1.821,0,0,0,.2.3q.06.074.131.147c.048.049.077.1.118.144s.079.091.12.135.047.088.072.126l.034.054.009.013h0L36.518,5.8l0,0,.005.006.01.012.043.049c.058.065.119.13.183.194.089.074.064.1.087.14a.589.589,0,0,0,.058.1c.058.1.135.185.2.3a2.433,2.433,0,0,1,.146.2c.031.042.063.088.1.136l.1.174a5.254,5.254,0,0,1,.462,1.015A9.2,9.2,0,0,1,38.278,9.6c.045.271.079.552.106.836.017.142.022.285.033.428l0,.053,0-.033v.394c.009.325-.021.546-.033.81-.012.129-.042.256-.062.384-.011.064-.022.128-.033.191s-.034.121-.05.181l-.1.357-.136.33a5.026,5.026,0,0,1-.3.591,7.509,7.509,0,0,1-.567.831l-.031.04-.123.083-.105.071-.124-.029-.145-.033-.042-.026a7.583,7.583,0,0,1-.827-.573,5.174,5.174,0,0,1-.49-.446l-.245-.258-.224-.3c-.037-.05-.077-.1-.112-.151l-.1-.167c-.064-.112-.138-.22-.195-.336-.106-.241-.213-.438-.321-.744l-.081-.212-.041-.107-.01-.027,0-.013,0-.007v0l.016.029-.016-.051c-.041-.138-.087-.273-.122-.412-.077-.275-.145-.549-.2-.818a9.176,9.176,0,0,1-.192-1.5,5.182,5.182,0,0,1,.068-1.113l.036-.2c.015-.057.03-.112.043-.162a2.258,2.258,0,0,1,.064-.24c.023-.129.063-.235.082-.35a.584.584,0,0,0,.017-.116c.008-.043-.025-.06.031-.162.036-.083.071-.165.1-.246l.023-.061.005-.015,0-.008v0c.045-.06-.062.08-.05.066h0l0-.015.013-.063c.009-.044.011-.091.022-.143s.045-.111.064-.169.031-.114.059-.176.05-.124.069-.185a1.879,1.879,0,0,0,.077-.355.8.8,0,0,0-.652-.925,1.469,1.469,0,0,0-.372-.042,1.345,1.345,0,0,0-.454.069c-.086.026-.175.056-.267.093a3.056,3.056,0,0,0-.3.181l-.155.109-.039.029,0,0h0l-.052.067,0,0-.007,0-.012.01-.05.041c-.067.055-.135.113-.2.175a1.694,1.694,0,0,0-.244.308,3.444,3.444,0,0,0-.238.392,3.529,3.529,0,0,0-.292.784,2.687,2.687,0,0,0-.085.517c-.009.1-.02.213-.024.329s0,.235.008.363A6.566,6.566,0,0,0,31,9.418a10.046,10.046,0,0,0,.743,1.746c.151.286.318.566.493.838.085.138.179.27.268.4l.034.05.019.036,0,0,0,.005.009.011.018.023.071.09.14.179a9.749,9.749,0,0,0,.639.737c.114.117.238.216.353.32l.128.111c-.051-.032-.105-.06-.156-.093a6.576,6.576,0,0,1-.983-.82,6.522,6.522,0,0,1-.716-.9c-.4-.588-.639-1.132-.8-1.375a3.5,3.5,0,0,0-1.131-1.123A1.288,1.288,0,0,0,28.908,9.5a1.232,1.232,0,0,0-.609,1.082,3.055,3.055,0,0,0,.529,1.781,6.77,6.77,0,0,0,1.488,1.514,7.551,7.551,0,0,0,1.35.825,7.133,7.133,0,0,0,.714.284,14.137,14.137,0,0,1-2.034-.777c-.386-.171-.712-.363-.989-.5-.264-.158-.482-.266-.62-.334a3.655,3.655,0,0,0-1.526-.409c-.059,0-.115,0-.176,0s-.125-.014-.186-.016a1.461,1.461,0,0,0-.343.024.886.886,0,0,0-.758.839,1.482,1.482,0,0,0,.013.343c.008.059.02.12.035.182a1.483,1.483,0,0,0,.093.2,3.118,3.118,0,0,0,.648.819,3.812,3.812,0,0,0,.962.646,6.849,6.849,0,0,0,.85.3,11.4,11.4,0,0,0,1.324.266,13.122,13.122,0,0,0,2.1.121c-.618.239-1.228.491-1.823.769l-.588.16c-.42.123-1.024.312-1.749.541-.363.112-.757.236-1.177.346s-.838.211-1.332.3a10.483,10.483,0,0,1-2.932.1,5.134,5.134,0,0,1-2.581-.883,1.709,1.709,0,0,1-.574-.8,1.742,1.742,0,0,1-.055-.21l-.011-.079,0-.022-.005-.046-.011-.092-.011-.092-.006-.046v0c0-.009,0-.029.008.046v-.018l0-.092a1.8,1.8,0,0,1,.029-.186,2.1,2.1,0,0,1,.832-1.2,1.334,1.334,0,0,1,.691-.256.8.8,0,0,1,.316.035l.092.032.059.013.037.024.05.037.1.073.012.009,0,0-.041-.038h0l.011.009.023.016.049.031a2.083,2.083,0,0,1,.272.213.712.712,0,0,1,.177.281,1.589,1.589,0,0,1,.069.413c0,.168,0,.312,0,.431,0,.064,0,.129.009.192a.958.958,0,0,0,0,.191.451.451,0,0,0,.408.421.909.909,0,0,0,.191.008,1.288,1.288,0,0,0,.247-.075,1.881,1.881,0,0,0,.562-.374,2.35,2.35,0,0,0,.527-.8,2.529,2.529,0,0,0,.143-1.286,3.017,3.017,0,0,0-.581-1.368l-.116-.145-.06-.072-.031-.036L23,13.154l0,0c-.02-.018.042.038-.045-.043l0,0-.01-.011L22.854,13l-.043-.045-.059-.057a4.077,4.077,0,0,0-.353-.281,3.141,3.141,0,0,0-.358-.219,3.3,3.3,0,0,0-.839-.312,3.365,3.365,0,0,0-.929-.066,3.487,3.487,0,0,0-1.1.265,4.168,4.168,0,0,0-1.189.765A4.694,4.694,0,0,0,17,14.349a4.312,4.312,0,0,0-.492,1.829,4.04,4.04,0,0,0,.019.53c.01.09.026.181.041.27l.021.115.012.044.024.089.025.09.013.045.021.068c.032.093.063.186.095.28a3.866,3.866,0,0,0,.229.491,3.578,3.578,0,0,0,.431.605A8.536,8.536,0,0,0,16.1,18.68a3.116,3.116,0,0,0-.333.038l-.088.014-.1,0a1.457,1.457,0,0,0-.185.007.764.764,0,0,0-.747.85,1.379,1.379,0,0,0,.017.183l.018.1c.014.034.031.071.049.107a2.669,2.669,0,0,0,.312.473,4.115,4.115,0,0,0,.428.427,4.891,4.891,0,0,0,.551.378,5.687,5.687,0,0,0,.646.3,5.223,5.223,0,0,0,.712.2,7.266,7.266,0,0,0,1.433.126,1.031,1.031,0,0,0-.476.445,1.374,1.374,0,0,0-.1.2.5.5,0,0,1-.1.233,1.358,1.358,0,0,0-.39,1.062.615.615,0,0,0,.182.3,1.6,1.6,0,0,0,.28.25,1.917,1.917,0,0,0,1.514.251,4.778,4.778,0,0,0,1.256-.637l.1-.072c-.577.619-1.123,1.265-1.644,1.931l-.05.017a14.014,14.014,0,0,1-4.379.734l-.3,0-.3-.022c-.2-.009-.4-.038-.593-.065s-.367-.071-.545-.1c-.079-.012-.2-.049-.3-.074l-.312-.083h0l.036.006-.008,0-.016-.006-.031-.011-.061-.023-.122-.045c-.08-.032-.158-.07-.235-.1a4.493,4.493,0,0,1-.437-.238,4.2,4.2,0,0,1-.727-.571,3.847,3.847,0,0,1-.842-1.217,4.193,4.193,0,0,1-.246-.847,4.841,4.841,0,0,1-.093-1.044,6.748,6.748,0,0,1,.111-.978c.023-.16.062-.309.081-.459s.027-.268.042-.4a.644.644,0,0,0-.766-.833,1.745,1.745,0,0,0-.5.169A2.726,2.726,0,0,0,8.281,20a3.587,3.587,0,0,0-1.01,1.485,4.224,4.224,0,0,0-.16,2.259,5,5,0,0,0,.661,1.624A6.034,6.034,0,0,0,8.9,26.68a3.646,3.646,0,0,0-.781.058,1.283,1.283,0,0,0-1.213.584,1.284,1.284,0,0,0,.376,1.293,3.993,3.993,0,0,0,.962.648,4.494,4.494,0,0,0,1.284.372c.117.016.267.03.445.042s.382,0,.608-.009l.355-.017c.123-.009.249-.03.381-.046.261-.04.543-.065.825-.136a12.868,12.868,0,0,0,1.833-.53c-.163.154-.315.308-.444.444a4.147,4.147,0,0,0-.447.6,3.844,3.844,0,0,0-.205.462,2.576,2.576,0,0,0-.107.48,2.254,2.254,0,0,0-.019.481,2.223,2.223,0,0,0,.073.455.636.636,0,0,0,.171.3,1.408,1.408,0,0,0,.226.209,1.1,1.1,0,0,0,1.126.118,1.4,1.4,0,0,0,.265-.158c.085-.059.162-.155.248-.181a2.393,2.393,0,0,0,.219-.119.6.6,0,0,0,.094-.067,1.254,1.254,0,0,0,.1-.1,2.1,2.1,0,0,0,.178-.215,1.387,1.387,0,0,0,.166-.255c.043-.092.127-.244.2-.448.1-.2.2-.454.362-.732a12.642,12.642,0,0,1,1.227-1.847,14.428,14.428,0,0,1,.974-1.106,28.776,28.776,0,0,0-5,18.51,7.368,7.368,0,0,1-.842-1.677L12.5,43.88l-.026-.106-.024-.156-.05-.311-.013-.077-.006-.039v-.008c.069.213.019.058.035.1v-.027l0-.147c-.009-.389,0-.761.01-1.093.025-.666.1-1.155.1-1.375a2.19,2.19,0,0,0-.294-1.114c-.047-.067-.1-.124-.161-.2a2.046,2.046,0,0,1-.158-.255,1.085,1.085,0,0,0-1.017-.5.607.607,0,0,0-.309.087,1.629,1.629,0,0,0-.325.269,2.435,2.435,0,0,0-.643,1.717A6.1,6.1,0,0,0,10,42.424a12.042,12.042,0,0,0,.461,1.125l-.051-.064a8.315,8.315,0,0,1-1.226-2.249c-.084-.2-.122-.417-.186-.622s-.083-.424-.127-.631c-.018-.207-.041-.388-.057-.6l-.01-.359L8.8,38.845v-.084c.009.082,0,.02,0,.037l0-.078A6.339,6.339,0,0,1,9.257,36.5a2.266,2.266,0,0,1,.424-.668l.051-.059.054-.042c.036-.026.063-.064.1-.078l.093-.06H10l0,0v0l.023-.009.107-.04.1-.039.05-.02.025-.009.013,0-.1.04h0l.059-.008h.048c.056,0,.1.018.132.02a1.154,1.154,0,0,1,.277.1,1.848,1.848,0,0,1,.316.226c.1.085.171.17.232.222l.088.059.044.014.076.025.018.009.007,0,.031.028a.2.2,0,0,1,.036.116,1.01,1.01,0,0,1-.1.306,1.231,1.231,0,0,1-.073.156.918.918,0,0,0-.1.154.523.523,0,0,0-.052.3.528.528,0,0,0,.137.276.942.942,0,0,0,.136.121.8.8,0,0,0,.236.082,1.367,1.367,0,0,0,.7-.04,1.673,1.673,0,0,0,.865-.692,2.226,2.226,0,0,0,.328-1.285,3.039,3.039,0,0,0-.336-1.267,3.483,3.483,0,0,0-.867-1.082,3.314,3.314,0,0,0-1.436-.69,3.218,3.218,0,0,0-1.093-.017c-.106.02-.215.044-.328.071s-.219.07-.332.11l-.119.047-.012.005-.023.013-.048.025-.1.05-.1.053-.029.015-.048.028-.1.059c-.128.081-.257.168-.383.262-.1.086-.195.177-.292.271a2.876,2.876,0,0,0-.266.3l-.127.161c-.036.055-.072.111-.109.168a4.777,4.777,0,0,0-.616,1.459,8.224,8.224,0,0,0-.1,3.1l.007.048c-.134-.423-.218-.762-.272-.973-.13-.435-.224-.831-.337-1.194-.04-.177-.091-.349-.142-.513a3.66,3.66,0,0,0-.133-.459A3.19,3.19,0,0,0,5.8,35.4l-.04-.1c-.008-.037-.016-.074-.023-.109a1.731,1.731,0,0,0-.059-.2.77.77,0,0,0-.417-.491.768.768,0,0,0-.638.08,1.882,1.882,0,0,0-.178.106l-.091.066a.893.893,0,0,0-.089.1,3.455,3.455,0,0,0-.353.566,5.481,5.481,0,0,0-.247.689,6.2,6.2,0,0,0-.122.81,5.636,5.636,0,0,0,.208,1.782,9.935,9.935,0,0,0,1.581,3.02,11.867,11.867,0,0,0,1.436,1.588c-.151,0-.3,0-.454.01a1.27,1.27,0,0,0-1.054.608,1.265,1.265,0,0,0,.1,1.211,1.963,1.963,0,0,0,.538.6,3.565,3.565,0,0,0,.387.27,3.712,3.712,0,0,0,.415.206,12.434,12.434,0,0,0,1.685.45c.385.081.775.18,1.2.277.4.116.83.223,1.222.376l.3.107.313.124.6.236c.384.147.727.285,1.016.414a6.512,6.512,0,0,1,.674.346l.034.023c.016.091.027.182.043.273s.04.18.058.271l-.024.033a6.469,6.469,0,0,1-.5.564c-.224.223-.495.476-.8.75l-.479.437-.248.228-.243.207c-.311.283-.675.537-1.006.788-.359.242-.688.475-1.019.688a12.421,12.421,0,0,0-1.412,1.024,3.686,3.686,0,0,0-.314.341,3.584,3.584,0,0,0-.264.39,1.976,1.976,0,0,0-.286.757,1.264,1.264,0,0,0,.344,1.165,1.271,1.271,0,0,0,1.2.191c.145-.046.288-.1.428-.154a11.928,11.928,0,0,0-.773,2,9.95,9.95,0,0,0-.394,3.386,5.649,5.649,0,0,0,.443,1.739,6.313,6.313,0,0,0,.4.712,5.457,5.457,0,0,0,.478.555,3.451,3.451,0,0,0,.533.4.883.883,0,0,0,.119.063l.108.029a1.721,1.721,0,0,0,.2.036.676.676,0,0,0,.838-.761,1.775,1.775,0,0,0-.016-.207c-.006-.036-.012-.072-.018-.111a.7.7,0,0,1,0-.1,3.19,3.19,0,0,0,0-.387,3.761,3.761,0,0,0-.04-.476c-.011-.172-.025-.35-.051-.53-.025-.38-.078-.784-.113-1.236-.025-.217-.068-.562-.094-1.006l.01.046a8.242,8.242,0,0,0,1.207,2.862,4.769,4.769,0,0,0,1.1,1.142l.162.118.176.1a2.712,2.712,0,0,0,.357.187c.125.053.249.1.37.149.15.042.3.078.451.107l.111.021c.039.007.075.013.088.014l.113.013.11.013.054.006.027,0h.141c.12,0,.237-.008.35-.016s.225-.033.331-.052a3.162,3.162,0,0,0,1.014-.406,3.308,3.308,0,0,0,1.094-1.158,3.483,3.483,0,0,0,.422-1.321,3.025,3.025,0,0,0-.14-1.3,2.22,2.22,0,0,0-.765-1.082,1.673,1.673,0,0,0-1.055-.337,1.377,1.377,0,0,0-.667.213.8.8,0,0,0-.19.161.906.906,0,0,0-.083.162.526.526,0,0,0-.03.307.533.533,0,0,0,.157.265.966.966,0,0,0,.145.11,1.222,1.222,0,0,1,.124.12,1,1,0,0,1,.2.25.164.164,0,0,1-.054.2.347.347,0,0,0-.136.143c-.039.072-.077.177-.137.29a1.869,1.869,0,0,1-.214.325,1.152,1.152,0,0,1-.222.195c-.033.017-.065.042-.116.066l-.044.018-.059.015h0l.1,0h-.337l0,0,0,0-.023.01a.692.692,0,0,0-.108-.023.523.523,0,0,1-.121-.037l-.066-.02-.068-.036A2.271,2.271,0,0,1,13.979,62a6.325,6.325,0,0,1-1.222-1.913l-.031-.071,0,0c.015.058.011.041.009.035l0-.01-.008-.021-.014-.042-.059-.169-.118-.338c-.061-.206-.1-.383-.162-.582-.034-.209-.083-.421-.108-.635s-.056-.43-.049-.648a8.312,8.312,0,0,1,.34-2.538l.025-.078a11.99,11.99,0,0,0-.028,1.214,6.089,6.089,0,0,0,.268,1.789,2.434,2.434,0,0,0,1.216,1.374,1.641,1.641,0,0,0,.4.135.6.6,0,0,0,.319-.029,1.086,1.086,0,0,0,.772-.827,2,2,0,0,1,.056-.294c.029-.09.06-.162.079-.242a2.185,2.185,0,0,0-.124-1.146c-.078-.206-.322-.635-.584-1.249-.132-.3-.27-.65-.4-1.016L14.5,54.56l-.006-.017,0-.009c0,.049-.006-.113,0,.109v-.007l-.008-.038-.016-.077-.065-.308-.033-.155-.014-.107-.035-.227a7.363,7.363,0,0,1,.186-1.867A28.779,28.779,0,0,0,25.8,67.349a14.4,14.4,0,0,1-1.3-.683,12.585,12.585,0,0,1-1.807-1.285c-.247-.2-.435-.4-.6-.554a4.855,4.855,0,0,0-.35-.345A1.368,1.368,0,0,0,21.5,64.3a2.028,2.028,0,0,0-.244-.137c-.043-.019-.087-.037-.132-.053a.66.66,0,0,0-.112-.028c-.072-.014-.156-.024-.247-.033a1.2,1.2,0,0,1-.3-.081,1.367,1.367,0,0,0-.3-.053,1.1,1.1,0,0,0-1.009.513,1.359,1.359,0,0,0-.136.276.637.637,0,0,0-.052.341,2.366,2.366,0,0,0,.285.893,2.533,2.533,0,0,0,.272.41,3.673,3.673,0,0,0,.357.358,4.124,4.124,0,0,0,.634.4c.17.082.366.17.574.256a12.849,12.849,0,0,0-1.9.162c-.289.035-.562.112-.819.168-.129.032-.254.057-.372.093l-.338.111c-.213.075-.409.136-.571.209s-.3.142-.4.2a4.509,4.509,0,0,0-1.066.807,4.019,4.019,0,0,0-.666.949,1.286,1.286,0,0,0,.112,1.342,1.284,1.284,0,0,0,1.341.112,3.709,3.709,0,0,0,.75-.226,6.05,6.05,0,0,0-.58,1.623,5.005,5.005,0,0,0-.036,1.753,4.222,4.222,0,0,0,.958,2.052,3.581,3.581,0,0,0,1.474,1.025,2.731,2.731,0,0,0,.65.148,1.716,1.716,0,0,0,.529-.023.643.643,0,0,0,.417-1.051c-.062-.122-.112-.243-.183-.362-.071-.134-.16-.258-.239-.4a6.6,6.6,0,0,1-.454-.874,4.831,4.831,0,0,1-.287-1.008,4.184,4.184,0,0,1-.073-.879,3.843,3.843,0,0,1,.35-1.437,4.235,4.235,0,0,1,.474-.794,4.637,4.637,0,0,1,.323-.379c.061-.058.12-.121.183-.18l.1-.086.049-.043.025-.022.013-.011.006-.005-.032.019,0,0,.262-.19c.085-.06.183-.136.252-.176.156-.093.29-.2.473-.291s.347-.193.531-.273l.274-.128.281-.113a13.989,13.989,0,0,1,4.351-.883l.053,0c.724.435,1.464.842,2.224,1.214-.04-.009-.082-.021-.121-.03a4.748,4.748,0,0,0-1.4-.145,1.918,1.918,0,0,0-1.324.776,1.633,1.633,0,0,0-.172.335.619.619,0,0,0-.063.346,1.352,1.352,0,0,0,.745.851.493.493,0,0,1,.177.182,1.4,1.4,0,0,0,.169.154,1.028,1.028,0,0,0,.6.246,7.255,7.255,0,0,0-1.293.63,5.26,5.26,0,0,0-.592.444,5.729,5.729,0,0,0-.5.509,5.014,5.014,0,0,0-.38.55,4.2,4.2,0,0,0-.246.552,2.732,2.732,0,0,0-.122.552c0,.041-.007.081-.007.118l.018.1a1.3,1.3,0,0,0,.05.178.765.765,0,0,0,1,.526,1.715,1.715,0,0,0,.175-.059l.09-.04.087-.018c.116-.025.226-.052.325-.084a8.542,8.542,0,0,0,1.2-.593,3.569,3.569,0,0,0-.186.719,3.833,3.833,0,0,0-.039.54c0,.1.009.2.012.3l0,.071,0,.046.009.092.009.092,0,.046.022.114c.019.09.036.179.059.267a4.051,4.051,0,0,0,.172.5,4.3,4.3,0,0,0,1.114,1.531,4.69,4.69,0,0,0,1.387.854,4.177,4.177,0,0,0,1.384.289,3.494,3.494,0,0,0,1.118-.145,3.409,3.409,0,0,0,.844-.394,3.33,3.33,0,0,0,.672-.592,3.092,3.092,0,0,0,.255-.333,3.916,3.916,0,0,0,.229-.388.526.526,0,0,0,.035-.073l.024-.058.046-.115.006-.014v0c.054-.108.016-.032.028-.056v0l0-.01.016-.045.03-.09.057-.177a3.014,3.014,0,0,0,.053-1.484,2.523,2.523,0,0,0-.594-1.149,2.344,2.344,0,0,0-.779-.559,1.848,1.848,0,0,0-.658-.147,1.284,1.284,0,0,0-.258.017.958.958,0,0,0-.176.076.45.45,0,0,0-.23.539.932.932,0,0,0,.066.18c.018.061.038.123.06.183l.156.4a1.631,1.631,0,0,1,.083.411.715.715,0,0,1-.065.325,2.157,2.157,0,0,1-.177.3l-.035.046-.015.023-.008.012v0h0l.026-.053,0,0-.008.013-.067.1-.034.052-.027.035-.05.034-.074.064a.83.83,0,0,1-.282.145,1.331,1.331,0,0,1-.738.007,2.094,2.094,0,0,1-1.2-.82,1.689,1.689,0,0,1-.094-.163L30.1,77.07l-.005-.011,0-.005.009.046v0l-.011-.045-.023-.09-.023-.09-.011-.045,0-.022-.018-.077a1.658,1.658,0,0,1-.024-.217,1.705,1.705,0,0,1,.25-.948,5.139,5.139,0,0,1,2.094-1.749,10.467,10.467,0,0,1,2.773-.957,13.387,13.387,0,0,1,1.35-.2c.431-.047.843-.073,1.223-.1.759-.045,1.391-.085,1.827-.12l.6-.061c.654.047,1.314.064,1.976.065a13.119,13.119,0,0,0-1.911.862,11.56,11.56,0,0,0-1.141.722,7.031,7.031,0,0,0-.687.581,3.821,3.821,0,0,0-.666.949,3.117,3.117,0,0,0-.312,1,1.536,1.536,0,0,0-.015.22c.009.063.019.124.032.183a1.476,1.476,0,0,0,.111.324.889.889,0,0,0,1.009.513,1.491,1.491,0,0,0,.328-.1c.056-.024.112-.051.168-.082s.111-.039.165-.061a3.664,3.664,0,0,0,1.279-.928c.1-.113.268-.292.459-.534.209-.227.445-.524.745-.821A14.264,14.264,0,0,1,43.278,73.8a7.18,7.18,0,0,0-.572.526,7.548,7.548,0,0,0-.965,1.254,6.743,6.743,0,0,0-.847,1.947,3.05,3.05,0,0,0,.144,1.852,1.233,1.233,0,0,0,.956.793,1.291,1.291,0,0,0,1.089-.586,3.483,3.483,0,0,0,.654-1.453c.06-.283.093-.878.251-1.569a6.5,6.5,0,0,1,.346-1.1,6.606,6.606,0,0,1,.624-1.118c.039-.053.079-.105.12-.158l-.088.165c-.071.138-.15.275-.216.425-.118.3-.258.645-.333.917l-.067.217-.034.109-.008.027,0,.014,0,.007v0l-.005.041-.014.058c-.035.158-.076.314-.105.473-.065.317-.121.639-.16.96a10.068,10.068,0,0,0-.068,1.9,6.555,6.555,0,0,0,.314,1.663c.043.12.084.235.122.341s.1.207.14.3a2.724,2.724,0,0,0,.265.453,3.616,3.616,0,0,0,.553.627,3.477,3.477,0,0,0,.363.281,1.629,1.629,0,0,0,.338.2c.084.034.168.064.25.092l.062.021.015,0,.008,0h0c-.015-.009.124.076.075.045h0l.047.013.184.045a2.913,2.913,0,0,0,.345.061q.147,0,.282-.009a1.315,1.315,0,0,0,.449-.1,1.472,1.472,0,0,0,.332-.172.87.87,0,0,0,.365-.493.859.859,0,0,0-.087-.6,1.876,1.876,0,0,0-.2-.3q-.061-.075-.131-.147c-.048-.049-.077-.1-.118-.145s-.079-.092-.121-.135-.047-.088-.071-.126l-.035-.054-.009-.013h0l.071.043,0,0-.005-.006-.01-.012-.043-.048c-.057-.066-.118-.13-.182-.195-.089-.074-.064-.1-.087-.139a.636.636,0,0,0-.057-.1c-.059-.1-.136-.185-.2-.3a2.44,2.44,0,0,1-.146-.2l-.1-.136-.1-.174a5.227,5.227,0,0,1-.462-1.015,9.224,9.224,0,0,1-.358-1.472c-.045-.27-.079-.551-.106-.836-.016-.142-.022-.285-.033-.428l0-.054,0,.033v-.395c-.009-.324.021-.546.033-.81.011-.128.042-.255.061-.384.012-.063.022-.128.033-.19s.034-.121.051-.181c.035-.122.069-.241.1-.357l.136-.33a4.991,4.991,0,0,1,.3-.591,7.56,7.56,0,0,1,.567-.831l.032-.041.122-.082.106-.071.124.029.142.033.045.027a7.519,7.519,0,0,1,.827.573,5.043,5.043,0,0,1,.49.445l.245.259.224.3c.037.051.077.1.112.151s.065.111.1.167c.064.113.138.22.195.336.106.242.213.439.321.744l.081.213.041.106.01.027,0,.013,0,.006v0l-.017-.029.016.052c.041.138.087.273.122.412.077.275.146.55.2.819a9.211,9.211,0,0,1,.192,1.5,5.242,5.242,0,0,1-.068,1.113c-.013.07-.024.137-.036.2l-.044.163a2.3,2.3,0,0,1-.064.24c-.023.129-.064.234-.082.35a.593.593,0,0,0-.017.116c-.008.043.025.06-.032.161-.036.084-.07.166-.1.247l-.023.061-.005.015,0,.008,0,0c-.011.015.1-.126.051-.066h0l0,.015-.013.063c-.009.044-.011.091-.022.143s-.045.112-.064.169-.031.114-.059.177-.05.123-.069.184a1.839,1.839,0,0,0-.077.355.859.859,0,0,0,.134.595.871.871,0,0,0,.517.33,1.464,1.464,0,0,0,.372.042,1.331,1.331,0,0,0,.454-.068q.128-.039.266-.093a2.9,2.9,0,0,0,.3-.181l.156-.108.039-.029,0,0h0c-.046.06.063-.082.053-.068l0,0,.006,0,.013-.01.05-.041c.067-.055.134-.114.2-.175a1.658,1.658,0,0,0,.244-.308,3.427,3.427,0,0,0,.53-1.176,2.692,2.692,0,0,0,.085-.518c.009-.1.019-.212.025-.329s0-.235-.008-.362a6.555,6.555,0,0,0-.3-1.665,10.013,10.013,0,0,0-.742-1.745c-.152-.286-.318-.566-.493-.839-.084-.138-.179-.27-.268-.4l-.034-.05-.02-.036,0,0,0-.006-.009-.011-.017-.022-.07-.09-.14-.178a9.593,9.593,0,0,0-.64-.738c-.114-.117-.238-.216-.353-.32l-.14-.122.168.1a6.572,6.572,0,0,1,.982.82,6.5,6.5,0,0,1,.717.9c.395.588.639,1.132.8,1.375a3.493,3.493,0,0,0,1.131,1.122,1.29,1.29,0,0,0,1.227.158,1.233,1.233,0,0,0,.609-1.083,3.055,3.055,0,0,0-.529-1.781,6.755,6.755,0,0,0-1.489-1.514,7.517,7.517,0,0,0-1.35-.826,7.213,7.213,0,0,0-.709-.282,14.283,14.283,0,0,1,2.029.775c.386.171.713.363.99.5.264.159.482.266.62.335a3.66,3.66,0,0,0,1.526.409c.058,0,.114,0,.176,0s.125.014.186.016a1.512,1.512,0,0,0,.343-.023.89.89,0,0,0,.758-.84,1.476,1.476,0,0,0-.012-.343c-.009-.06-.021-.121-.036-.183a1.422,1.422,0,0,0-.093-.2,3.131,3.131,0,0,0-.648-.818,3.82,3.82,0,0,0-.963-.647,7.057,7.057,0,0,0-.849-.3,11.6,11.6,0,0,0-1.324-.266,13.2,13.2,0,0,0-2.094-.121c.618-.238,1.228-.49,1.823-.768l.586-.159c.421-.123,1.024-.312,1.749-.542.363-.112.757-.235,1.178-.346a13.363,13.363,0,0,1,1.332-.3,10.462,10.462,0,0,1,2.932-.1,5.142,5.142,0,0,1,2.581.883,1.711,1.711,0,0,1,.574.8,1.658,1.658,0,0,1,.055.211l.011.079,0,.022.006.046.011.092.011.092.005.046v.006c.008.048-.011-.06-.009-.048v.018l0,.092a1.658,1.658,0,0,1-.029.186,2.093,2.093,0,0,1-.832,1.2,1.323,1.323,0,0,1-.691.257.823.823,0,0,1-.316-.035l-.091-.033-.06-.014-.037-.023-.05-.036-.1-.073-.012-.009,0,0,.043.041h0l0,0-.011-.008-.023-.016-.048-.03a2,2,0,0,1-.272-.215.7.7,0,0,1-.178-.28,1.589,1.589,0,0,1-.069-.413c0-.167,0-.312,0-.431,0-.064,0-.129-.01-.192a.932.932,0,0,0,0-.192.451.451,0,0,0-.408-.421.942.942,0,0,0-.192-.008,1.283,1.283,0,0,0-.247.076,1.859,1.859,0,0,0-.562.373,2.355,2.355,0,0,0-.528.8,2.53,2.53,0,0,0-.142,1.285,3.01,3.01,0,0,0,.58,1.367l.116.146.06.072.031.036.008.009v0l.046.042,0,0,.01.011.084.091.043.045.059.057a4.23,4.23,0,0,0,.353.28,3.077,3.077,0,0,0,.358.219,3.276,3.276,0,0,0,.84.312,3.362,3.362,0,0,0,.929.066,3.487,3.487,0,0,0,1.1-.265,4.178,4.178,0,0,0,1.189-.765,4.7,4.7,0,0,0,.99-1.295,4.306,4.306,0,0,0,.492-1.828,3.894,3.894,0,0,0-.019-.53c-.01-.089-.026-.18-.04-.27l-.021-.114-.012-.045-.025-.089-.025-.089-.012-.045-.021-.068c-.032-.093-.063-.187-.095-.28A3.864,3.864,0,0,0,67.3,69a3.6,3.6,0,0,0-.43-.6,8.455,8.455,0,0,0,1.334.123,3.215,3.215,0,0,0,.333-.037l.089-.014.1.005a1.754,1.754,0,0,0,.185-.007.765.765,0,0,0,.747-.85,1.681,1.681,0,0,0-.017-.184l-.018-.1a1.159,1.159,0,0,0-.049-.107,2.652,2.652,0,0,0-.312-.472,4.155,4.155,0,0,0-.427-.427,4.978,4.978,0,0,0-.552-.377,5.651,5.651,0,0,0-.646-.3,5.318,5.318,0,0,0-.712-.2,7.3,7.3,0,0,0-1.432-.126,1.026,1.026,0,0,0,.476-.445,1.331,1.331,0,0,0,.1-.2.509.509,0,0,1,.1-.234,1.348,1.348,0,0,0,.39-1.061.607.607,0,0,0-.182-.3,1.61,1.61,0,0,0-.28-.251,1.914,1.914,0,0,0-1.514-.25,4.739,4.739,0,0,0-1.256.636l-.1.072c.577-.619,1.123-1.264,1.643-1.93l.051-.017a13.99,13.99,0,0,1,4.379-.734l.3,0,.3.022c.2.009.4.037.593.064s.367.072.545.1c.079.013.2.049.3.074l.313.083h0l-.037-.006.008,0,.015.006.031.012.062.023.121.045c.081.032.158.07.236.1a4.444,4.444,0,0,1,.437.238,4.284,4.284,0,0,1,.728.572,3.835,3.835,0,0,1,.841,1.217,4.084,4.084,0,0,1,.246.847,4.784,4.784,0,0,1,.094,1.043,6.747,6.747,0,0,1-.111.978c-.023.161-.062.309-.08.459s-.028.267-.042.4a.644.644,0,0,0,.766.833,1.716,1.716,0,0,0,.5-.168,2.721,2.721,0,0,0,.555-.371,3.587,3.587,0,0,0,1.009-1.485,4.215,4.215,0,0,0,.16-2.259,4.993,4.993,0,0,0-.661-1.624,6.059,6.059,0,0,0-1.123-1.308,3.732,3.732,0,0,0,.781-.058,1.042,1.042,0,0,0,.837-1.878,4.005,4.005,0,0,0-.962-.648,4.487,4.487,0,0,0-1.284-.372c-.118-.016-.267-.031-.445-.043s-.382,0-.608.009l-.355.017c-.123.008-.249.03-.381.046-.261.04-.542.065-.825.137a12.882,12.882,0,0,0-1.833.529c.163-.154.315-.308.444-.444a4.114,4.114,0,0,0,.447-.6,3.844,3.844,0,0,0,.205-.462,2.6,2.6,0,0,0,.106-.48,2.349,2.349,0,0,0-.054-.936.64.64,0,0,0-.171-.3,1.405,1.405,0,0,0-.226-.209,1.124,1.124,0,0,0-.546-.216,1.108,1.108,0,0,0-.58.1,1.368,1.368,0,0,0-.265.158c-.085.059-.162.155-.248.181-.082.041-.157.081-.22.119a.6.6,0,0,0-.094.066c-.037.031-.072.063-.105.1a2.174,2.174,0,0,0-.179.216,1.426,1.426,0,0,0-.165.254c-.043.093-.127.244-.2.448-.1.2-.2.455-.362.732a12.626,12.626,0,0,1-1.227,1.847,14.313,14.313,0,0,1-.974,1.105,28.775,28.775,0,0,0,5-18.509,7.332,7.332,0,0,1,.842,1.677l.05.224.026.105.024.156.05.312.013.077.006.039v.007c-.068-.211-.019-.057-.034-.1v.027l0,.146c.009.389,0,.761-.01,1.093-.025.666-.1,1.155-.1,1.375a2.181,2.181,0,0,0,.295,1.115c.047.068.1.124.16.2a2.034,2.034,0,0,1,.159.254,1.085,1.085,0,0,0,1.016.5.6.6,0,0,0,.309-.088,1.654,1.654,0,0,0,.325-.269,2.434,2.434,0,0,0,.643-1.718,6.133,6.133,0,0,0-.389-1.766c-.127-.362-.284-.743-.461-1.123l.051.063a8.31,8.31,0,0,1,1.226,2.248c.084.2.122.417.186.622s.083.424.127.632c.018.207.041.388.058.6l.01.358.005.179v.083c-.009-.082,0-.02,0-.037l0,.078a6.335,6.335,0,0,1-.456,2.223,2.273,2.273,0,0,1-.423.668l-.051.059-.054.042c-.036.026-.064.065-.1.078l-.092.06H74.3l0,0-.024.012-.106.041-.1.039-.051.019-.025.009-.006,0,.091-.036h0l-.059.008h-.048c-.056,0-.095-.017-.132-.02a1.158,1.158,0,0,1-.277-.1,1.882,1.882,0,0,1-.317-.226c-.1-.084-.17-.169-.232-.222l-.088-.058-.045-.015-.076-.025-.018-.009-.007,0-.03-.028a.2.2,0,0,1-.036-.115.982.982,0,0,1,.1-.306,1.177,1.177,0,0,1,.073-.157.933.933,0,0,0,.1-.155.521.521,0,0,0,.052-.3.527.527,0,0,0-.138-.276.9.9,0,0,0-.136-.121.808.808,0,0,0-.236-.082,1.375,1.375,0,0,0-.7.04,1.675,1.675,0,0,0-.865.693,2.221,2.221,0,0,0-.328,1.284,3.039,3.039,0,0,0,.336,1.267,3.5,3.5,0,0,0,.867,1.082,3.311,3.311,0,0,0,1.436.69,3.184,3.184,0,0,0,1.092.016c.106-.02.216-.043.328-.07s.22-.07.333-.111l.118-.047.012-.006.023-.012.048-.025.1-.051.1-.052.077-.044.1-.059c.128-.08.258-.168.383-.262q.146-.129.292-.271a2.825,2.825,0,0,0,.266-.3l.127-.16.109-.168a4.759,4.759,0,0,0,.616-1.459,8.217,8.217,0,0,0,.1-3.1L77.48,48.3c.134.422.218.761.272.972.13.435.225.831.338,1.195.039.177.09.349.142.513a3.752,3.752,0,0,0,.133.458,3.173,3.173,0,0,0,.141.361l.041.095c.008.038.016.074.023.109a1.721,1.721,0,0,0,.059.2.675.675,0,0,0,1.054.411,1.679,1.679,0,0,0,.177-.106l.091-.066.088-.1a3.475,3.475,0,0,0,.354-.567,5.448,5.448,0,0,0,.247-.688,6.128,6.128,0,0,0,.122-.809,5.636,5.636,0,0,0-.208-1.782M28.1,18.413l-.045.025h0ZM56.2,68.784l.056-.032h.006Zm-9.153,1.273A26.91,26.91,0,1,1,68.613,38.7,26.941,26.941,0,0,1,47.052,70.058" transform="translate(-3.54 -3.539)" fill="#669293"/>
</svg>
