<svg id="Group_874" data-name="Group 874" xmlns="http://www.w3.org/2000/svg" xmlns:xlink="http://www.w3.org/1999/xlink" width="153.109" height="150.988" viewBox="0 0 153.109 150.988">
  <defs>
    <clipPath id="clip-path">
      <rect id="Rectangle_447" data-name="Rectangle 447" width="153.109" height="150.988" fill="none"/>
    </clipPath>
  </defs>
  <g id="Group_863" data-name="Group 863" clip-path="url(#clip-path)">
    <path id="Path_803" data-name="Path 803" d="M149.86,39.353a53.938,53.938,0,0,0-13.7-21.787,10.694,10.694,0,0,0,1.136-.246c-.113-.111-.423.05-.4-.186.045-.062.13-.039.186-.056-.036-.068-.127.009-.134-.065.159-.085.3.033.469-.027a8.277,8.277,0,0,0-1.532-.568c-.04-.138-.178-.183-.282-.247.08-.044.21-.074.3-.119a.51.51,0,0,0-.645-.093c.044.063-.029.182.1.171-.041.042-.073.024-.111.033-.108.052-.231.156-.218.266.022.146.2.206.345.221a.865.865,0,0,1-.089.113,47.522,47.522,0,0,0-3.95-3.217,4.363,4.363,0,0,0,.832-.206l-.14,0,.006.018a1.654,1.654,0,0,1-.746.15l-.216-.156c-.006-.067-.047-.066-.085-.062l-.06-.043a.118.118,0,0,1,.012-.054.488.488,0,0,1,.391-.157c-.008.013-.025.027-.012.041.066-.113.142-.031.239-.042l-.006.021c.137-.013.32.056.493.033a1.364,1.364,0,0,0-1.063.025.245.245,0,0,0-.1.1c-.472-.335-.948-.664-1.434-.983.215-.239-.072-.49-.212-.724a.513.513,0,0,0-.665-.218.231.231,0,0,0-.164.282,45.111,45.111,0,0,0-8.488-4.113C112.2,4.7,103.922,4.068,95.777,4.5c-.366.02-.732.053-1.1.076.05-.041.1-.08.135-.115-.329-.044-.756.154-1.122.117-.1-.023-.092-.229,0-.3a4.127,4.127,0,0,0-1.436.474c-3.01.263-6.01.644-9,1.092-1.92.287-3.724.36-5.386.78a2.241,2.241,0,0,1-.845-.324c.033-.081.313-.179.133-.3-.262.078-.632.284-.842-.019-.146-.182.205-.349.046-.436-.376-.2-.437.608-.85.466-.213-.059-.057-.309-.084-.434-.266.04-.153.582-.537.55-.116,0-.07-.176-.132-.26a.4.4,0,0,1-.614.3c-.1.184.083.379-.2.441-.073.03-.081-.061-.1-.114-.588.091-.5,1.123-1.008,1.556.55.214-.258.73.255.987-.009.132-.182.14-.192.272l.246-.056c.146.182.067.437.026.686l.264-.041c.05.18.306.288.113.561.178.086.1-.238.29-.25.174.012.112.245.214.342.1.077.193-.254.316-.124.186.214.547.175.679.437.171.032.139-.081.135-.187,2.5,1.013,5.569.717,8.356.451a99.665,99.665,0,0,1,18.133-.066,57.927,57.927,0,0,1,16.892,3.748l-.2.129.225-.12a35.9,35.9,0,0,1,5.769,2.977c7.754,4.978,13.117,13.052,16.452,21.642,3.584,9.227,6.879,19.827,3.724,29.467-3.474,10.613-4.058,21.245-9.824,31.175a57.987,57.987,0,0,1-14.107,16.14c-6.4,5.249-11.794,10.984-19.006,15.308-13.933,8.353-30.437,12.72-46.663,10.382C29.394,138.23,9.951,118.2,8.555,92.263,7.364,70.151,14.736,42.838,31.739,26.951c.03,0,.064,0,.093,0,.912.553-.45,1.333.116,2.1.592-.213.248-1.527,1.042-1.545-.521.012,1.374,5.256,1.4,5.694.134,2.313-1.553,5.366-2.266,7.545a4.443,4.443,0,0,0-.3,1.418c.017,1.594,1.677,2.769,1.83,4.355l1.512,2.272a7.838,7.838,0,0,1-.47-1.9,1.407,1.407,0,0,0,.635.369A1.61,1.61,0,0,0,37.244,45.9c.112-1.335-1.3-2.226-1.686-3.407a13.72,13.72,0,0,1-.2-3.762c-.045-2.7-.22-5.84,1.3-8.217.787-.416,0-1.533,1.07-1.884.989-.222,1.165.313,1.335,1.093.708-.285,0-.889.169-1.4,1.179-1.067.857,1.234,2.022,1.546.043-.188-.16-.382-.306-.614-.228-2.919,1.852.124,2.949-.567.2-.45-.473-.75-.216-1.236a2.455,2.455,0,0,1,2.486-.278c.618-1.195,1.237-1.746.24-3.457,1.063-.1,1.093-1.334,2.222-1.079-.032-.946-1.626-1.556-.915-2.729.466-1.181,1.46-.114,2.195-.738.219-1.188-1.448-.379-2.041-.81a6.553,6.553,0,0,1-.376-3.152c.627-.8,2.336-.262,1.933-1.541-1,.468-2.2.1-3.172.47a2.937,2.937,0,0,0-.641-.887c-.458-.6.511-.724.487-1.276-.152-1.517-1.852-.121-2.7-.958-.327-.518.646-.892-.041-1.344a3.456,3.456,0,0,0-3.276,1.583c-1.03-.48-.731-1.8-.821-2.708A5.537,5.537,0,0,0,37.391,10.7c-.695-.207-1.329.193-1.936.253a7.337,7.337,0,0,0-3.668-2.364c-.733,1.268-2.481,1.565-3.709,2.178-.334-.275-1.035-.235-1.141.235a2.3,2.3,0,0,1,.387,2.659c-.389.407-1.332-.449-1.43.418a2.068,2.068,0,0,1,.306,2.146c.265,1.445-1.352.288-1.732,1.092.582.923,1.689,1.273,1.638,2.6-.207.694-.793.661-1.342.685-.275.7.142.7.62.686A70.948,70.948,0,0,0,13.115,37.268a3.594,3.594,0,0,0-.084-1.741l-.022.226.03,0c.116.5.274,1.141-.025,1.5L13,37.241c.087.071-.067.132-.067.228l-.09-.166c-.258-.007.035.376-.283.185a.79.79,0,0,1-.177-.664c.018.016.038.047.063.027-.17-.127-.023-.236-.021-.394l.032.013c.007-.223.155-.507.15-.791a2.224,2.224,0,0,0-.167,1.726c.077.184.258.276.369.219a.8.8,0,0,0,.2-.176q-2.037,3.588-3.743,7.389c-.018-.024-.042-.013-.08.081a.192.192,0,0,1,.024.04,110.614,110.614,0,0,0-9.1,38.879C-.645,98.551,2.5,113.55,11.384,125.532A63.749,63.749,0,0,0,43.948,148.08c29.666,9.073,62.109-4.052,82.647-25.944,19.786-21.09,32.939-54.167,23.265-82.783"/>
    <path id="Path_804" data-name="Path 804" d="M65.276,16.676c.232.02.247-.236.413-.318.212.136.293.491.663.4.059-.431.528-.334.8-.575.247-.235.5.517.629.3.156-.25-.309-.292-.238-.529.073-.209.355-.337.521-.447l.393.25a3.672,3.672,0,0,1,.506-1.547c.149.062.333.231.526.088-.041-.191-.274-.211-.373-.4.516-.53-.417-1.064.143-1.377.129-.245-.3-.095-.421-.218-.279-.294.274-.239.317-.471-.122-.094-.318.021-.463-.012-.539-.257.166-.535.151-.788-.237-.076-.328.3-.568.173-.028-.419-.646-.578-.472-1.029-.271.3-.6.065-.922.058.023-.088-.046-.247.034-.344-.269-.157-.278.156-.474.272-.419.206-.317-.433-.487-.378-.484.555-1.508.826-2.193,1.44-.567.624-.432,1.365-.588,2.067-.265.38.4,1.238.329,1.927.681.685,1.093.791,1.773,1.449"/>
    <path id="Path_805" data-name="Path 805" d="M65.991,7.178a1.953,1.953,0,0,0,.974-.15c.4-.173.074-.633.112-.949-.329-.175-.806-.356-1.13-.023a.66.66,0,0,0,.044,1.122"/>
    <path id="Path_806" data-name="Path 806" d="M60.68,13.071l-.143.021.146.035Z"/>
    <path id="Path_807" data-name="Path 807" d="M60.685,12.7l-.091-.071.005.085Z"/>
    <path id="Path_808" data-name="Path 808" d="M61.093,12.753l-.085.013.033.08Z"/>
    <path id="Path_809" data-name="Path 809" d="M99.564.186l-.083.1c.092,0,.081-.065.083-.1"/>
    <path id="Path_810" data-name="Path 810" d="M99.884.038c.018-.02-.021-.052-.039-.03,0,0,.067.157.039.03"/>
    <path id="Path_811" data-name="Path 811" d="M81.6,13.706a1.127,1.127,0,0,0,.093.867,1.668,1.668,0,0,0,1.233.563c.477.008.984-.03,1.456-.04-.063-.019-.187-.134-.081-.185.252-.114.487.045.749-.016a.3.3,0,0,1-.322-.208,1.447,1.447,0,0,1,.934-.338l-.146-.127c.062-.076.226-.049.277-.083-.19-.058-.413.01-.556-.1l.219-.085a2.822,2.822,0,0,0-.327-.131c.111-.128.042-.261.041-.354-.136-.075-.345.141-.432.015-.217-.354.419-.164.466-.483-.43.2-.79.008-1.192-.023l.15-.311c-.13.038-.428.223-.629.114l.079-.178c-.67.374-1.721.366-2.012,1.1"/>
    <path id="Path_812" data-name="Path 812" d="M118.494,15.087l-.153-.068-.042.261c0-.078.064-.249.195-.193"/>
    <path id="Path_813" data-name="Path 813" d="M118.36,15.376c-.007-.037,0-.078-.039-.084-.01.042.05.043.039.084"/>
    <path id="Path_814" data-name="Path 814" d="M119.188,15.45l-.13.04.005.017.128-.04Z"/>
    <path id="Path_815" data-name="Path 815" d="M119.411,15.383l-.038.012,0,.017.039-.011Z"/>
    <path id="Path_816" data-name="Path 816" d="M129.178,9.966l-.13.039.057-.094-.241.245c.164.027.2-.157.314-.19"/>
    <path id="Path_817" data-name="Path 817" d="M129.4,9.709c-.067.058-.16.086-.205.155.062-.075.272-.024.205-.155"/>
    <path id="Path_818" data-name="Path 818" d="M131.215,11.484c-.044-.023-.07-.055-.1-.024.022.012.094.066.1.024"/>
    <path id="Path_819" data-name="Path 819" d="M131,13.188a.053.053,0,0,1,0,.022c.016-.016.059-.047,0-.022"/>
    <path id="Path_820" data-name="Path 820" d="M131.971,13.19l-.019.007-.006.011Z"/>
    <path id="Path_821" data-name="Path 821" d="M132.012,13.245l-.04-.006.005.026Z"/>
    <path id="Path_822" data-name="Path 822" d="M8.038,45.949l-.111-.116.011.065Z"/>
    <path id="Path_823" data-name="Path 823" d="M7.7,45.728l-.032-.184H7.637l.03.189Z"/>
    <path id="Path_824" data-name="Path 824" d="M8.79,44.545l-.075.262.211-.337Z"/>
    <path id="Path_825" data-name="Path 825" d="M7.228,40.263c.075-.261-.214-.355-.246-.546l.037.219-.14-.111Z"/>
    <path id="Path_826" data-name="Path 826" d="M6.609,39.309c.08.121.108.275.21.362-.108-.116.015-.445-.21-.362"/>
    <path id="Path_827" data-name="Path 827" d="M9.838,36.713c-.046.067-.1.1-.06.165.024-.035.127-.141.06-.165"/>
    <path id="Path_828" data-name="Path 828" d="M8.333,46.716l-.086.038.1.02Z"/>
    <path id="Path_829" data-name="Path 829" d="M7.016,45.927c.019-.066-.083-.309-.162-.238.12-.012.147.142.162.238"/>
    <path id="Path_830" data-name="Path 830" d="M6.56,45.56l-.058,0,.027.159Z"/>
    <path id="Path_831" data-name="Path 831" d="M7.214,45.493c-.081-.277-.238-.326-.134-.589-.151.173-.21.179-.013.447l-.02-.124c.164.078.062.182.167.266"/>
    <path id="Path_832" data-name="Path 832" d="M9.9,41.144c.478-.205.73-.833.921-1.3-.352-.63-.869-.136-1.318.065a.837.837,0,0,0-.483,1.034c.116.491.629.315.88.2"/>
    <path id="Path_833" data-name="Path 833" d="M12.556,37.4a.077.077,0,0,1,.034.013c-.022-.03-.064-.1-.034-.013"/>
    <path id="Path_834" data-name="Path 834" d="M12.773,35.868l-.024-.045.007.033Z"/>
    <path id="Path_835" data-name="Path 835" d="M12.845,35.767l-.018.063.043,0Z"/>
    <path id="Path_836" data-name="Path 836" d="M26.985,33.6l-.094-.1c-.026.063-.117.088-.115.15Z"/>
    <path id="Path_837" data-name="Path 837" d="M23.314,20.827,23.22,20.8l.24.253Z"/>
    <path id="Path_838" data-name="Path 838" d="M44.227,5.715c.838-.206.848-1.342.924-2.116-1.244-1.717-.763.966-1.382,1.517a.619.619,0,0,0,.458.6"/>
    <path id="Path_839" data-name="Path 839" d="M42.659,6.3l-.115.073.014.152Z"/>
    <path id="Path_840" data-name="Path 840" d="M39.306,3.121c-.058.094.014.192.072.26Z"/>
    <path id="Path_841" data-name="Path 841" d="M39.64,3.395c-.058.037-.137.167-.21.05-.01-.015-.03-.038-.052-.064l.118.427c.007-.246.279-.581.144-.413"/>
    <path id="Path_842" data-name="Path 842" d="M39.141,3.628l-.012.492.288-.181Z"/>
  </g>
</svg>
