<svg xmlns="http://www.w3.org/2000/svg" xmlns:xlink="http://www.w3.org/1999/xlink" width="61.551" height="62.118" viewBox="0 0 61.551 62.118">
  <defs>
    <clipPath id="clip-path">
      <rect id="Rectangle_499" data-name="Rectangle 499" width="61.551" height="62.118" fill="none"/>
    </clipPath>
  </defs>
  <g id="Group_945" data-name="Group 945" transform="translate(0 0)">
    <g id="Group_940" data-name="Group 940" transform="translate(0 0)" clip-path="url(#clip-path)">
      <path id="Path_960" data-name="Path 960" d="M57.993,28.805q-23.52,11.062-46.2,23.789c10.354-13.683,23.78-24.842,36.948-35.754,1.787-1.481-.129-4.815-2.312-3.97a290.022,290.022,0,0,0-35.25,16.446A117.841,117.841,0,0,1,39.243,4.482c2.577-1.63.2-5.744-2.4-4.1A123.358,123.358,0,0,0,.369,35.916c-1.346,2.005,1.281,4.443,3.25,3.25a283.424,283.424,0,0,1,30.032-15.8c-12,10.395-23.363,21.556-31.687,35.193a2.394,2.394,0,0,0,3.25,3.25q21.608-12.525,44.04-23.533L31.876,57.414c-2.051,2.259,1.3,5.629,3.359,3.359Q48.055,46.656,60.872,32.537a2.387,2.387,0,0,0-2.879-3.731" transform="translate(0 0)" fill="#ae0018"/>
    </g>
  </g>
</svg>
