<svg xmlns="http://www.w3.org/2000/svg" xmlns:xlink="http://www.w3.org/1999/xlink" width="71.994" height="67.345" viewBox="0 0 71.994 67.345">
  <defs>
    <clipPath id="clip-path">
      <rect id="Rectangle_419" data-name="Rectangle 419" width="60.172" height="53.598" fill="#fff"/>
    </clipPath>
  </defs>
  <g id="Group_812" data-name="Group 812" transform="matrix(-0.966, -0.259, 0.259, -0.966, 58.121, 67.345)">
    <g id="Group_810" data-name="Group 810" transform="translate(0 0)" clip-path="url(#clip-path)">
      <path id="Path_623" data-name="Path 623" d="M56.193,12.454A24.759,24.759,0,0,0,36.086,1.241,24.089,24.089,0,0,0,33.3.517C20.916-1.894,7.215,4.272,2.16,16.114a25.3,25.3,0,0,0-.849,18.2A19.844,19.844,0,0,0,3.8,39.082,45.227,45.227,0,0,0,5,46.228c.679,2.713,4.874,1.564,4.194-1.156-.065-.259-.124-.52-.184-.781,5.513,6.362,14.088,10.164,22.512,9.142a26.588,26.588,0,0,0,14.87-7.1,28.668,28.668,0,0,0,4.715-2.8c10.019-7.37,11.756-20.805,5.082-31.086m-12.208,30.2a37.381,37.381,0,0,1-16.172,2.627c-5.429-.245-11.277-1.373-15.928-4.328a21.976,21.976,0,0,1-2.556-3.974,18.359,18.359,0,0,1-1.242-3.209c.383-7.739,3.157-15.327,8.814-20.821A26.953,26.953,0,0,1,34.7,5.47,23.169,23.169,0,0,1,48.612,18.223a21.934,21.934,0,0,1-4.628,24.434m10.08-8.906a24.311,24.311,0,0,0,.846-5.817,27.769,27.769,0,0,0-5.643-17.1c6.08,5.72,8.754,15.362,4.8,22.92" transform="translate(0 0)" fill="#000"/>
      <path id="Path_624" data-name="Path 624" d="M51.888,37.721c-2.2-2.189-4.558-4.2-6.937-6.193a2.237,2.237,0,0,0-2.866-.053c-.1-.07-.2-.142-.3-.21-2.043-1.365-4.47,1.761-2.635,3.415l3.37,3.036.055.068A56.166,56.166,0,0,0,23.866,40.54c-2.2.715-1.983,4.555.578,4.271L38.58,43.246l3.665-.405c.243-.027.522-.08.814-.138l-1.8,3.5a2.121,2.121,0,0,0,.653,2.814A2.272,2.272,0,0,0,45.6,50.138,9.315,9.315,0,0,0,48.884,43.6a9.1,9.1,0,0,0,.405-2.045l1.062-.125c1.774-.209,2.989-2.269,1.537-3.712" transform="translate(-10.11 -13.985)" fill="#000"/>
    </g>
  </g>
</svg>