<svg xmlns="http://www.w3.org/2000/svg" width="103.172" height="78.041" viewBox="0 0 103.172 78.041">
  <g id="Group_68" data-name="Group 68" opacity="0.75">
    <path id="Path_285" data-name="Path 285" d="M123.928,49.186c.285.183.383.68.462.966a3.359,3.359,0,0,1,.089.717L38.168,104.59c-.064-.055-.132-.106-.191-.166a4.26,4.26,0,0,1-.459-.572,2.584,2.584,0,0,0-.313-.466c-.166-.155-.5-.138-.681-.3a3.072,3.072,0,0,1-.417-.579c-.149-.221-.217-.464-.366-.681s-.37-.276-.608-.415a1.413,1.413,0,0,1-.43-.525c-.17-.285.106-.764.21-1.11.085-.281.234-.557.081-.768a2.971,2.971,0,0,1-.391-.583c-.042-.108,0-.236-.04-.342a1,1,0,0,0-.193-.285c-.227-.253-.663-.177-1.006-.255a1.093,1.093,0,0,1-.311-.074c-.07-.042-.128-.14-.2-.194a2.183,2.183,0,0,1-.372-.362,2.554,2.554,0,0,0-.23-.194,3.778,3.778,0,0,1-.379-.559,6.375,6.375,0,0,0-.9-1.208c-.194-.176-.438-.327-.51-.589a.706.706,0,0,1,.07-.449,3.626,3.626,0,0,1,.391-.5c.294-.43.734-1,.668-1.433-.028-.183-.094-.347-.349-.338a4.571,4.571,0,0,1-.663.008c-.259-.026-.321-.317-.447-.485-.155-.2-.357-.362-.5-.578a3.35,3.35,0,0,1-.6-1.161,3.856,3.856,0,0,1,.194-2.5c.072-.168.166-.366-.075-.4-.181-.028-.264.109-.423.155a.713.713,0,0,1-.479-.085.429.429,0,0,1-.227-.413.45.45,0,0,0-.1-.243,3.22,3.22,0,0,1-.17-.464,3.034,3.034,0,0,1-.176-.874,3.153,3.153,0,0,1,.1-.629c.032-.3-.306-.445-.574-.54-.327-.115-.664.091-1.015.106a.369.369,0,0,1-.323-.191,1.17,1.17,0,0,0-.68-.485,9.259,9.259,0,0,0-1.351-.228c-.408-.068-.817-.121-1.21-.213-.374-.089-.259-.376-.338-.653a1.444,1.444,0,0,0-.24-.421c-.059-.085-.1-.206-.215-.238-.177-.051-.24,0-.344-.14-.187-.249-.011-.487.092-.812a2.456,2.456,0,0,0,.183-1.351,1.382,1.382,0,0,0-.243-.379l83.335-51.868c.074.087.138.16.174.213a4.783,4.783,0,0,1,.393.57,1.769,1.769,0,0,1,.066.3c.108.366.423.391.793.521.644.23,1.385.336,2.022.585.291.113.453.325.34.629-.232.625-.617,1.259-.87,1.886a1.055,1.055,0,0,0,.019,1.063.89.89,0,0,1,.1.663c-.074.547-.428,1.182-.449,1.714-.011.3.294.321.581.4.776.21,1.548.4,2.344.576.493.109.944.287,1.451.376a2.548,2.548,0,0,1,.819.16,1.174,1.174,0,0,1,.385.638c.066.342-.251.668-.347,1.031-.089.33.059.4.353.478.342.094.691.153,1.017.274.391.145.98.217,1.206.519a1,1,0,0,1,.153.208c.072.2-.143.353-.336.551a12.468,12.468,0,0,0-1.317,1.706c-.155.23-.213.272-.038.362a1.625,1.625,0,0,0,.774.064c.7-.017,1.418-.092,2.123-.145.47-.036.619-.092.814.217.145.234.185.5.344.727a1.62,1.62,0,0,0,.394.408,2.974,2.974,0,0,0,.31.243,1.793,1.793,0,0,1,.3.189,1.572,1.572,0,0,1,.442.661c.07.281-.151.772.094.98.134.115.277.145.376.319.076.134.187.411.1.572-.1.193-.538.4-.51.585s.51.1.693.079a11.7,11.7,0,0,0,1.3-.219,1.055,1.055,0,0,1,.345-.072c.091.006.14.036.213.045.283.043.357.076.5.3.217.336.279.955.681,1.176l.189-.083c.276.194.227.583.3.885.043.176-.008.215.206.249.117.021.24-.017.33.042" transform="translate(-21.307 -26.549)" fill="#fff"/>
    <rect id="Rectangle_104" data-name="Rectangle 104" width="103.172" height="78.041" fill="none"/>
  </g>
</svg>
