<svg xmlns="http://www.w3.org/2000/svg" xmlns:xlink="http://www.w3.org/1999/xlink" width="88.515" height="33.711" viewBox="0 0 88.515 33.711">
  <defs>
    <clipPath id="clip-path">
      <rect id="Rectangle_185" data-name="Rectangle 185" width="88.515" height="33.711" fill="none"/>
    </clipPath>
  </defs>
  <g id="Group_207" data-name="Group 207" opacity="0.75">
    <g id="Group_206" data-name="Group 206">
      <g id="Group_205" data-name="Group 205" clip-path="url(#clip-path)">
        <path id="Path_460" data-name="Path 460" d="M293.822,32.21a1.554,1.554,0,0,1-.17.937,2.941,2.941,0,0,1-.3.565l-87.458-6.1a2.013,2.013,0,0,1-.048-.22,3.909,3.909,0,0,1-.029-.652,2.366,2.366,0,0,0,.019-.5c-.037-.2-.278-.36-.321-.573a2.787,2.787,0,0,1,.006-.635c.008-.237.084-.449.091-.683a1.432,1.432,0,0,0-.211-.616,1.288,1.288,0,0,1-.033-.6c.027-.293.462-.5.712-.693.2-.159.446-.281.447-.512a2.767,2.767,0,0,1,.025-.625c.025-.1.118-.172.147-.266a.937.937,0,0,0,.011-.307c-.03-.3-.372-.473-.571-.708a1,1,0,0,1-.18-.215c-.027-.067-.018-.168-.039-.244a1.967,1.967,0,0,1-.074-.455,2.4,2.4,0,0,0-.062-.261,3.372,3.372,0,0,1,.021-.6,5.781,5.781,0,0,0-.011-1.34,1.267,1.267,0,0,1-.054-.691.62.62,0,0,1,.277-.286,2.97,2.97,0,0,1,.529-.162c.425-.157,1.023-.343,1.194-.687.073-.147.112-.3-.071-.425a4.118,4.118,0,0,1-.465-.338c-.168-.154-.063-.4-.066-.584,0-.227-.062-.448-.053-.677a3.093,3.093,0,0,1,.175-1.15,3.439,3.439,0,0,1,1.408-1.7c.135-.084.3-.178.152-.331-.111-.114-.239-.058-.372-.108a.618.618,0,0,1-.291-.31.392.392,0,0,1,.053-.416.427.427,0,0,0,.055-.227,2.77,2.77,0,0,1,.119-.424,2.8,2.8,0,0,1,.322-.724,2.955,2.955,0,0,1,.388-.4c.175-.2.015-.48-.124-.688-.169-.253-.508-.28-.761-.453a.328.328,0,0,1-.128-.3,1.056,1.056,0,0,0-.225-.7,8.084,8.084,0,0,0-.825-.868c-.251-.261-.508-.512-.734-.783s.011-.406.1-.647a1.362,1.362,0,0,0,.047-.429c0-.092.034-.2-.029-.285-.1-.128-.166-.124-.168-.279,0-.277.239-.358.478-.538A2.165,2.165,0,0,0,207.533.4a1.283,1.283,0,0,0,.024-.4L292,5.89c.008.1.015.187.013.244a4.288,4.288,0,0,1-.017.616,1.666,1.666,0,0,1-.106.251c-.112.32.1.5.285.789.333.5.795.963,1.111,1.474a.422.422,0,0,1-.084.63c-.481.331-1.07.589-1.565.911a.947.947,0,0,0-.529.777.815.815,0,0,1-.268.529c-.331.357-.9.63-1.186,1-.159.208.042.386.2.59.435.556.877,1.091,1.341,1.635.286.336.51.7.819,1.026.153.162.416.347.489.541a1.075,1.075,0,0,1-.057.662c-.127.281-.515.352-.767.563-.23.193-.161.318,0,.529.19.245.4.47.569.727.2.308.572.666.575,1a.939.939,0,0,1,0,.23c-.055.183-.281.178-.515.223a10.485,10.485,0,0,0-1.787.547c-.226.086-.288.085-.211.241a1.383,1.383,0,0,0,.505.449c.493.35,1.034.672,1.553,1,.346.219.477.256.455.581-.017.244-.123.454-.129.7a1.451,1.451,0,0,0,.067.5,2.527,2.527,0,0,0,.091.336,1.53,1.53,0,0,1,.112.293,1.418,1.418,0,0,1-.029.706c-.095.24-.5.479-.432.757.036.152.119.25.1.425-.015.135-.078.395-.219.467-.169.087-.576.006-.651.157s.305.336.44.418a9.774,9.774,0,0,0,1.016.517c.119.054.175.044.277.129a1.362,1.362,0,0,1,.124.143.481.481,0,0,1,.2.473c-.02.356-.292.835-.124,1.2l.173.038c.094.284-.14.539-.242.8-.06.149-.115.151.015.287.071.074.176.112.209.2" transform="translate(-205.347)" fill="#fff"/>
      </g>
    </g>
  </g>
</svg>
